<?xml version="1.0" encoding="UTF-8"?><svg id="Layer_2" xmlns="http://www.w3.org/2000/svg" width="502.38" height="980.11" xmlns:xlink="http://www.w3.org/1999/xlink" viewBox="0 0 502.38 980.11"><defs><style>.cls-1{fill:url(#linear-gradient-38);}.cls-1,.cls-2,.cls-3,.cls-4,.cls-5,.cls-6,.cls-7,.cls-8,.cls-9,.cls-10,.cls-11,.cls-12,.cls-13,.cls-14,.cls-15,.cls-16,.cls-17,.cls-18,.cls-19,.cls-20,.cls-21,.cls-22,.cls-23,.cls-24,.cls-25,.cls-26,.cls-27,.cls-28,.cls-29,.cls-30,.cls-31,.cls-32,.cls-33,.cls-34,.cls-35,.cls-36,.cls-37,.cls-38,.cls-39,.cls-40,.cls-41{stroke-width:0px;}.cls-2{fill:url(#linear-gradient-12);}.cls-3{fill:#003dff;}.cls-4{fill:url(#linear-gradient-17);}.cls-5{fill:url(#linear-gradient-19);}.cls-6{fill:url(#linear-gradient-33);}.cls-7{fill:url(#linear-gradient);}.cls-42{filter:url(#outer-glow-3);}.cls-8{fill:url(#linear-gradient-21);}.cls-9{fill:url(#linear-gradient-6);}.cls-10{fill:url(#linear-gradient-15);}.cls-11{fill:url(#linear-gradient-11);}.cls-12{fill:url(#linear-gradient-5);}.cls-43{filter:url(#outer-glow-1);}.cls-13{fill:url(#linear-gradient-31);}.cls-14{fill:url(#linear-gradient-34);}.cls-15{fill:url(#linear-gradient-13);}.cls-16{fill:url(#linear-gradient-23);}.cls-17{fill:url(#linear-gradient-25);}.cls-18{fill:url(#linear-gradient-16);}.cls-19{fill:url(#linear-gradient-22);}.cls-20{fill:url(#linear-gradient-35);}.cls-21{fill:url(#linear-gradient-32);}.cls-22{fill:url(#linear-gradient-20);}.cls-23{fill:url(#linear-gradient-14);}.cls-24{fill:url(#linear-gradient-2);}.cls-25{fill:url(#linear-gradient-7);}.cls-26{fill:#9f55ff;}.cls-27{fill:url(#linear-gradient-39);}.cls-28{fill:url(#linear-gradient-3);}.cls-29{fill:url(#linear-gradient-9);}.cls-30{fill:url(#linear-gradient-27);}.cls-31{fill:url(#linear-gradient-36);}.cls-32{fill:url(#linear-gradient-8);}.cls-33{fill:url(#linear-gradient-24);}.cls-34{fill:url(#linear-gradient-26);}.cls-35{fill:url(#linear-gradient-18);}.cls-36{fill:url(#linear-gradient-30);}.cls-37{fill:url(#linear-gradient-29);}.cls-38{fill:url(#linear-gradient-28);}.cls-39{fill:url(#linear-gradient-10);}.cls-44{fill:none;stroke:#003dff;stroke-miterlimit:10;}.cls-40{fill:url(#linear-gradient-4);}.cls-41{fill:url(#linear-gradient-37);}.cls-45{filter:url(#outer-glow-2);}</style><filter id="outer-glow-1" filterUnits="userSpaceOnUse"><feOffset dx="0" dy="0"/><feGaussianBlur result="blur" stdDeviation="5"/><feFlood flood-color="#ff7bf9" flood-opacity=".75"/><feComposite in2="blur" operator="in"/><feComposite in="SourceGraphic"/></filter><linearGradient id="linear-gradient" x1="275.08" y1="192.35" x2="293.78" y2="192.35" gradientUnits="userSpaceOnUse"><stop offset="0" stop-color="#fff"/><stop offset="0" stop-color="#ff0031"/><stop offset=".59" stop-color="#ff1cc0"/><stop offset="1" stop-color="#ff8ac0"/></linearGradient><linearGradient id="linear-gradient-2" x1="256.23" y1="310.69" x2="278.69" y2="310.69" xlink:href="#linear-gradient"/><linearGradient id="linear-gradient-3" x1="259.23" y1="307.95" x2="278.8" y2="307.95" xlink:href="#linear-gradient"/><linearGradient id="linear-gradient-4" x1="262.03" y1="305.21" x2="278.96" y2="305.21" xlink:href="#linear-gradient"/><linearGradient id="linear-gradient-5" x1="264.68" y1="302.47" x2="279.48" y2="302.47" xlink:href="#linear-gradient"/><linearGradient id="linear-gradient-6" x1="165.79" y1="416.41" x2="258.25" y2="416.41" xlink:href="#linear-gradient"/><linearGradient id="linear-gradient-7" x1="166.17" y1="419.16" x2="258.77" y2="419.16" xlink:href="#linear-gradient"/><linearGradient id="linear-gradient-8" x1="166.75" y1="421.87" x2="259.14" y2="421.87" xlink:href="#linear-gradient"/><linearGradient id="linear-gradient-9" x1="167.22" y1="424.28" x2="259.82" y2="424.28" xlink:href="#linear-gradient"/><linearGradient id="linear-gradient-10" x1="6.38" y1="686.04" x2="156.7" y2="686.04" xlink:href="#linear-gradient"/><linearGradient id="linear-gradient-11" x1="20.41" y1="687.67" x2="157.16" y2="687.67" xlink:href="#linear-gradient"/><linearGradient id="linear-gradient-12" x1="34.45" y1="689.31" x2="157.65" y2="689.31" xlink:href="#linear-gradient"/><linearGradient id="linear-gradient-13" x1="48.48" y1="690.95" x2="164.39" y2="690.95" xlink:href="#linear-gradient"/><linearGradient id="linear-gradient-14" x1="47.3" y1="691.75" x2="162.53" y2="691.75" xlink:href="#linear-gradient"/><linearGradient id="linear-gradient-15" x1="46.12" y1="692.37" x2="161.43" y2="692.37" xlink:href="#linear-gradient"/><linearGradient id="linear-gradient-16" x1="44.95" y1="691.96" x2="160.71" y2="691.96" xlink:href="#linear-gradient"/><linearGradient id="linear-gradient-17" x1="290.46" y1="313.91" x2="320.8" y2="313.91" xlink:href="#linear-gradient"/><linearGradient id="linear-gradient-18" x1="290.13" y1="311.57" x2="320.96" y2="311.57" xlink:href="#linear-gradient"/><linearGradient id="linear-gradient-19" x1="289.8" y1="309.24" x2="321.45" y2="309.24" xlink:href="#linear-gradient"/><linearGradient id="linear-gradient-20" x1="289.46" y1="306.91" x2="322.36" y2="306.91" xlink:href="#linear-gradient"/><linearGradient id="linear-gradient-21" x1="319.3" y1="428.88" x2="413.23" y2="428.88" xlink:href="#linear-gradient"/><linearGradient id="linear-gradient-22" x1="320.28" y1="428.22" x2="402.98" y2="428.22" xlink:href="#linear-gradient"/><linearGradient id="linear-gradient-23" x1="321.24" y1="425.73" x2="393.37" y2="425.73" xlink:href="#linear-gradient"/><linearGradient id="linear-gradient-24" x1="322.09" y1="429.24" x2="412.8" y2="429.24" xlink:href="#linear-gradient"/><linearGradient id="linear-gradient-25" x1="270.85" y1="712.71" x2="398.14" y2="712.71" xlink:href="#linear-gradient"/><linearGradient id="linear-gradient-26" x1="266.92" y1="713.75" x2="400.41" y2="713.75" xlink:href="#linear-gradient"/><linearGradient id="linear-gradient-27" x1="262.98" y1="714.79" x2="402.94" y2="714.79" xlink:href="#linear-gradient"/><linearGradient id="linear-gradient-28" x1="259.05" y1="715.82" x2="406.89" y2="715.82" xlink:href="#linear-gradient"/><linearGradient id="linear-gradient-29" x1="258.15" y1="714.32" x2="403.03" y2="714.32" xlink:href="#linear-gradient"/><linearGradient id="linear-gradient-30" x1="256.11" y1="712.82" x2="399.4" y2="712.82" xlink:href="#linear-gradient"/><linearGradient id="linear-gradient-31" x1="251.6" y1="711.34" x2="395.86" y2="711.34" xlink:href="#linear-gradient"/><filter id="outer-glow-2" filterUnits="userSpaceOnUse"><feOffset dx="0" dy="0"/><feGaussianBlur result="blur-2" stdDeviation="5"/><feFlood flood-color="#ff7bf9" flood-opacity=".75"/><feComposite in2="blur-2" operator="in"/><feComposite in="SourceGraphic"/></filter><linearGradient id="linear-gradient-32" x1="315.97" y1="450.62" x2="394.98" y2="450.62" xlink:href="#linear-gradient"/><linearGradient id="linear-gradient-33" x1="317.68" y1="446.68" x2="379.7" y2="446.68" xlink:href="#linear-gradient"/><linearGradient id="linear-gradient-34" x1="319.4" y1="442.66" x2="364.63" y2="442.66" xlink:href="#linear-gradient"/><linearGradient id="linear-gradient-35" x1="321.15" y1="439.56" x2="350.63" y2="439.56" xlink:href="#linear-gradient"/><filter id="outer-glow-3" filterUnits="userSpaceOnUse"><feOffset dx="0" dy="0"/><feGaussianBlur result="blur-3" stdDeviation="5"/><feFlood flood-color="#ff7bf9" flood-opacity=".75"/><feComposite in2="blur-3" operator="in"/><feComposite in="SourceGraphic"/></filter><linearGradient id="linear-gradient-36" x1="185.18" y1="442.83" x2="252.73" y2="442.83" xlink:href="#linear-gradient"/><linearGradient id="linear-gradient-37" x1="185.93" y1="443.77" x2="242.82" y2="443.77" xlink:href="#linear-gradient"/><linearGradient id="linear-gradient-38" x1="186.54" y1="444.79" x2="233.02" y2="444.79" xlink:href="#linear-gradient"/><linearGradient id="linear-gradient-39" x1="187.3" y1="445.6" x2="223.1" y2="445.6" xlink:href="#linear-gradient"/></defs><g id="illustration"><path class="cls-3" d="M69.51,925.56c15.37-248.28,31.39-502.81,52.13-750.4,2.16-24.75,4.87-55.65,7.74-80.23.67-5.9,1.69-14.08,2.66-19.98,0,0,1.2-6.62,1.2-6.62l.1.24-34.02-21.49s.3-.03.3-.03c-2.19,1.95-4.51,3.72-6.92,5.37-7.2,4.95-15.27,8.93-23.96,10.32.73-1.38-19.41,217.64-19.18,217.39-10.95,128.09-28.62,308.89-36.15,435.48-4.85,72.33-8.56,146.44-13.25,217.92,0,0,69.34-7.98,69.34-7.98h0ZM69.58,925.63c-.21.01-69.39,8.27-69.58,8.29,3.91-72.8,8.09-145.58,12.59-218.35,2.07-32.13,4.89-77.51,7.47-109C33.14,449.04,54.1,220.69,68.43,62.46c0,0,.02-.21.02-.21,0,0,.21-.03.21-.03,5.73-.9,11.21-2.98,16.33-5.68,5.16-2.76,10.05-6.1,14.44-9.97.15-.05,33.98,21.64,34.15,21.63,0,0,.13.08.13.08,0,0-.03.16-.03.16-1.66,8.38-2.92,18.06-3.89,26.55-2.89,24.52-5.65,55.44-7.84,80.21-19.56,238.02-36.43,511.08-52.36,750.44h0Z"/><path class="cls-3" d="M35.43,929.12l16.45-316.88c-.93.29-13.74,318.77-16.45,316.88h0Z"/><polyline class="cls-44" points="89.64 616.7 51.78 612.25 20.33 615.35"/><path class="cls-44" d="M22.29,615.42l26.36,51.03s-31.27,50.14-36.03,53.42l28.3,51.49-34.31,49.22,28.5,53.58L.79,926.35"/><path class="cls-3" d="M97.73,50.08c-1.06,5.16-1.68,13.79-2.3,19.14-17.49,196.78-32.68,405.51-47.85,602.18,14.85-196.59,29.72-405.54,46.89-602.27.29-2.87,1.18-11.7,1.53-14.55,0,0,.32-2.43.32-2.43.15-.83.2-1.58.53-2.55l.88.48h0Z"/><polyline class="cls-44" points="36.24 926.92 72.64 882.63 40.54 836.86"/><line class="cls-44" x1="39.43" y1="825.17" x2="78.43" y2="779.34"/><line class="cls-44" x1="79.79" y1="770.38" x2="46.49" y2="725.57"/><line class="cls-44" x1="85.49" y1="676.72" x2="47.15" y2="718.42"/><line class="cls-44" x1="85.87" y1="671.88" x2="52.35" y2="613.02"/><polyline class="cls-44" points="91.39 584.55 54.21 583.39 23.25 580.81 53.94 580.91 90.69 583.26"/><polyline class="cls-44" points="55.4 572.37 95.39 528.41 62 471.74 102.79 427.36"/><polyline class="cls-44" points="66.03 420 31.07 476.19 58.3 517.21"/><polyline class="cls-44" points="58.64 526.29 23.32 578.78 58.55 538.51"/><polygon class="cls-44" points="66.58 430.34 37.28 420.16 66.84 413.82 66.58 430.34"/><polygon class="cls-44" points="101.13 422.64 66.57 430.34 67.07 413.05 101.13 422.64"/><polygon class="cls-44" points="103.23 393.02 67.35 399.48 40.43 389.86 68.45 384.96 103.23 393.02"/><polygon class="cls-3" points="68.88 380.15 106.89 343.96 108.07 342.84 107.27 344.26 82.91 387.35 106.85 344.02 107.23 344.31 69.57 380.87 68.88 380.15 68.88 380.15"/><path class="cls-3" d="M71.26,358.12c-10.87,11.68-21.88,23.24-33.06,34.63,3.31-5.58,6.76-11.15,10.15-16.67,5.57-9.02,11.04-18.1,16.4-27.25,0,0,8.04-13.72,8.04-13.72v.37c-8.37-14.49-17.05-29.76-25.2-44.39,0,0-.22-.4-.22-.4,0,0,.38-.23.38-.23,9-5.42,21.88-13.79,30.77-18.78-5.02,3.3-10.05,6.59-15.11,9.82l-15.15,9.75.16-.63c2.14,3.68,4.21,7.39,6.31,11.09,6.1,10.79,12.76,22.62,18.7,33.41,0,0,.1.19.1.19,0,0-.11.18-.11.18-4.91,7.98-11.78,19.25-16.52,27.17-5.44,9.1-10.68,18.31-16.11,27.42,0,0-.68-.52-.68-.52,10.26-10.5,20.63-21.45,31.14-31.44h0Z"/><path class="cls-3" d="M108.43,336.43l-31.85-48.95s-.2-.3-.2-.3c0,0,.27-.24.27-.24,0,0,38.1-34.5,38.1-34.5.29,2.18-31.02-56.17-31.04-55.63,0,0-.11-.21-.11-.21l.19-.14c.04.22,38.97-28.46,38.41-27.4-.03-.1-31.13-55.1-30.89-55.16,0,0,39.89-32.2,39.89-32.2.21.21-34.87-20.23-34.83-20.24.07.04,34.9,20.23,34.96,20.27-.03-.05-39.82,32.37-39.86,32.35-.07-.75,31.07,54.95,31.09,54.77,0,0,.09.16.09.16l-.15.11-38.39,27.77.08-.35c.26.18,31.04,56.06,31.25,56.23-.16.22-38.03,34.58-38.22,34.8,0,0,.07-.54.07-.54l31.98,48.87-.84.55h0Z"/><path class="cls-3" d="M80.69,232.6l-24.54-30.43s-.2-.24-.2-.24c.07.02,30.33-41.58,30.44-41.65.35,1.43-23.23-36.46-23.21-36.15.04-.1,31.99-59.9,32.04-60-.03-.06-31.82,60.62-31.7,59.9.11.21,23.33,36.24,23.43,36.42,0,.12-30.12,41.57-30.16,41.7,0,0-.01-.49-.01-.49l24.69,30.3-.78.63h0Z"/><path class="cls-3" d="M47.8,288.48l31.35-40.27c.25,1.25-22.88-41.51-22.86-41.24,0,0,23.26,41.26,23.26,41.26,0,0,.08.14.08.14l-.1.13-30.94,40.58-.79-.61h0Z"/><path class="cls-3" d="M445.87,957.42c-5.97-197.74-11.61-422.27-20.45-618.95-1.05-20.43-2.39-45.91-4.03-66.22-.53-6.99-1.29-15.03-2.39-21.96,0,0-.02-.16-.02-.16l.13-.08c.17-.04,28.35-16.75,28.5-16.8,3.46,3.31,7.35,6.21,11.48,8.64,4.14,2.41,8.62,4.31,13.34,5.2,4.92,89.65,14.47,269.81,19.01,359.46,6.73,119.5,8.79,239.93,10.92,359.57,0,0,0,.21,0,.21,0,0-.21-.03-.21-.03,0,0-56.3-8.9-56.3-8.9h0ZM445.95,957.35c-.2.09,57.19,8.42,56.07,8.79-2.51-119.88-4.91-239.79-11.53-359.53.13-.02-18.97-360.24-18.36-359.02-7.07-1.41-13.53-4.94-19.25-9.22-1.91-1.44-3.75-2.96-5.47-4.63,0,0,.3.04.3.04,0,0-28.37,16.66-28.37,16.66,0,0,.11-.23.11-.23,0,0,.79,5.49.79,5.49,1.51,12.76,2.25,25.78,3.11,38.59,11.62,219.15,16.98,443.48,22.61,663.07h0Z"/><path class="cls-3" d="M473.39,960.33l-2.93-260.21c-.91.29,5.76,261.97,2.93,260.21h0Z"/><polyline class="cls-44" points="438.69 702.66 469.67 700.13 495.21 703.62"/><path class="cls-44" d="M493.62,703.62l-22.99,41.2s24,42.18,27.78,45.03l-24.59,41.52,26.51,41.52-24.81,43.23,26.41,43.96"/><path class="cls-3" d="M449.69,235.85c.37,1.26.41,2.89.55,4.15.21,2.41.66,9.48.82,12.02,7.2,138.4,14.74,356.57,20.28,496.9-6.1-144.78-13.7-362.21-21.77-504.84,0,0-.31-3.99-.31-3.99l-.19-1.99c-.08-.63-.16-1.36-.27-1.81,0,0,.9-.44.9-.44h0Z"/><polyline class="cls-44" points="473.01 959.47 444.66 921.95 472.18 885.26"/><line class="cls-44" x1="473.43" y1="875.67" x2="443" y2="836.79"/><line class="cls-44" x1="442.16" y1="829.39" x2="470.62" y2="793.52"/><line class="cls-44" x1="440.28" y1="752.16" x2="470.3" y2="787.61"/><line class="cls-44" x1="440.12" y1="748.17" x2="469.19" y2="700.74"/><polyline class="cls-44" points="438.21 676.15 468.55 676.31 493.86 675.12 468.84 674.28 438.82 675.12"/><polyline class="cls-44" points="467.91 667.21 436.61 629.85 465.51 584.22 433.58 546.49"/><polyline class="cls-44" points="463.76 541.54 490.58 588.81 467.17 621.75"/><polyline class="cls-44" points="466.63 629.21 493.86 673.45 466.34 639.26"/><polygon class="cls-44" points="463 550.03 487.19 542.53 463.28 536.43 463 550.03"/><polygon class="cls-44" points="435.07 542.66 463.01 550.03 463.12 535.79 435.07 542.66"/><polygon class="cls-44" points="434.23 518.23 463.29 524.62 485.52 517.51 462.82 512.64 434.23 518.23"/><polygon class="cls-3" points="461.96 509.3 432.39 478.07 432.78 477.79 450.96 514.18 432.35 478.01 431.6 476.56 432.74 477.73 462.68 508.61 461.96 509.3 461.96 509.3"/><path class="cls-3" d="M461.4,490.41c8.28,8.82,16.42,17.76,24.44,26.81,0,0-.7.49-.7.49-4.15-7.65-8.1-15.42-12.27-23.06-3.64-6.71-9-16.26-12.79-23.01,5.17-8.76,11-18.39,16.32-27.12,1.83-2.98,3.62-5.97,5.48-8.93,0,0,.14.63.14.63l-12.04-8.5c-4.02-2.82-8.02-5.69-12-8.57,7.22,4.35,17.62,11.75,24.94,16.54-3.17,5.34-7.8,12.93-11.08,18.32-3.66,5.95-7.31,11.91-11.02,17.83,0,0,0-.37,0-.37,7.96,15.26,16.66,30.88,25.07,45.83,0,0,1.73,3.17,1.73,3.17-8.81-9.86-18.01-19.94-26.23-30.06h0Z"/><path class="cls-3" d="M430.93,471s27.53-39.24,27.53-39.24c0,0,.05.54.05.54l-29.94-29.62s-.2-.2-.2-.2c.07-.04,27.07-45.25,27.18-45.36,0,0,.06.35.06.35l-30.46-24-.14-.11.09-.16c.07.22,27.05-44.86,26.98-44.1-.06-.03-31.48-27.79-31.53-27.82.06-.03,29.04-15.59,29.11-15.63,0,0-29.16,15.88-28.98,15.6,0,0,31.56,27.67,31.56,27.67.29.04-26.83,44.38-26.79,44.49-.64-1.15,30.59,23.93,30.49,23.63,0,0,.18.15.18.15l-.12.2s-26.89,45.21-26.89,45.21c0,0-.06-.43-.06-.43,0,0,30.04,29.52,30.04,29.52l.25.25s-.2.29-.2.29l-27.4,39.33s-.82-.57-.82-.57h0Z"/><path class="cls-3" d="M456.67,386.33l21.04-24.18-.03.49c-.13-.23-23.24-35.06-23.35-35.25.06-.13,20.12-29.13,20.21-29.28.14.75-24.04-50.35-24.03-50.21.04.09,24.33,50.24,24.37,50.32-.03-.04-19.94,29.33-19.98,29.33,0,0,0-.31,0-.31l23.46,34.95.17.25s-.2.23-.2.23l-20.89,24.31s-.76-.65-.76-.65h0Z"/><path class="cls-3" d="M481.77,434.41c-.11-.18-23.96-34.32-24.06-34.47.01-.15,20.26-33.21,20.3-33.36,0,0-19.81,33.48-19.81,33.48v-.26s24.38,34.04,24.38,34.04c0,0-.82.58-.82.58h0Z"/><path class="cls-3" d="M68.72,63.02l-1.83-23.34v-.07s.04-.06.04-.06L93.39,1.03S94.1,0,94.1,0c0,0,.16,1.25.16,1.25,1.98,14.83,3.9,30.24,5.41,45.09-2-10.93-3.38-22.52-4.92-33.7,0,0-1.44-11.26-1.44-11.26l.87.21-26.91,38.2s.04-.14.04-.14c-.04-.03,1.66,23.57,1.41,23.37h0Z"/><path class="cls-3" d="M133,67.97c82.17,43.12,214.42,112,295.02,155.05-.05.08,19.85,10.43,19.53,10.59,0,0-19.75-10.19-19.75-10.19-80.55-41.86-213.67-112.3-294.81-155.45h0Z"/><path class="cls-3" d="M129.67,93.82c75.64,40.72,197.4,105.76,271.57,146.45-.05.08,18.28,9.86,17.97,10.02,0,0-18.18-9.62-18.18-9.62-74.16-39.52-196.7-106.08-271.35-146.85h0Z"/><path class="cls-3" d="M93.81,1.26c110.61,61.75,274.51,151.9,382.97,213.55,0,0-4.56,32.52-4.56,32.52-.26.2,4.14-32.6,4.08-32.59C368.54,155.68,203.06,62.49,93.81,1.26h0Z"/><path class="cls-3" d="M191.71,99.24l8.3,32.07-.33-.25,26.06-.5c8.62.02,17.63-.25,26.07.25-8.68.42-17.37.65-26.05.78,0,0-26.06.13-26.06.13h-.27s-.06-.25-.06-.25c.11-.03-7.99-32.35-7.66-32.23h0Z"/><path class="cls-3" d="M230.67,77.83s32.64,58.5,32.6,58.55c0,0,2.57,30.85,2.57,30.85-1.6-.62,53.24-1.4,52.92-1.59,0,0,.09,0,.09,0l.08.04s9.35,4.57,9.35,4.57c0,0-.5.53-.5.53l-31.58-56.16s.68.19.68.19c-15.41,9.05-46.51,27.14-61.99,36.07,0,0-.3.17-.3.17l-.17-.3-12.02-20.92s-11.94-20.96-11.94-20.96c6.26,9.99,18.43,31.25,24.55,41.54,0,0-.47-.12-.47-.12,15.38-9.11,46.39-27.34,61.83-36.34,0,0,.44-.26.44-.26l.25.44,31.38,56.27s.6,1.07.6,1.07c0,0-1.09-.54-1.09-.54l-9.33-4.6.17.04c-.31-.03-53.19,1.18-53.46,1.16-.1-.25-2.38-30.85-2.46-31.11.24.35-32.56-58.7-32.19-58.58h0Z"/><path class="cls-3" d="M153.28,34.4c12.95,22.11,26.17,44.11,40.83,65.13-.53-.35,10.16,5.45,10.07,5.39,0,0-.48.43-.48.43l-21.86-54.66.48.31c-15.99.79-37.88,1.63-53.88,2.27-5.93.15-12.22.62-17.97.53,5.98-.35,11.96-.74,17.95-1.04,16.14-.85,38.07-2.06,54.22-2.76.21.19,21.51,54.86,21.7,55.1,0,0,.35.88.35.88,0,0-.83-.45-.83-.45,0,0-10.14-5.54-10.14-5.54-3.78-5.22-7.25-10.7-10.77-16.11-10.25-16.19-20.48-32.87-29.66-49.48h0Z"/><path class="cls-3" d="M229.15,76.95c-.12.02-51.03,14.86-51.15,14.84-15.14-.13-32.44-.45-47.53-1.2,3.72-.34,7.99-.09,11.89-.18,10.59,0,25.06.25,35.65.54-.57.2,51.37-14.34,51.13-14h0Z"/><path class="cls-3" d="M381.9,199.26l-55.14,1.18s-.35,0-.35,0l-.03-.36c-.7-7.77-2.04-23.41-2.67-31.18,0,0,.73.4.73.4-2.33,1.24-4.68,2.43-7.02,3.65-6.79,3.42-14.49,7.65-21.23,10.66,9.04-5.1,18.62-10.3,27.79-15.19,0,0,.67-.35.67-.35,0,0,.06.75.06.75.64,7.77,1.86,23.42,2.44,31.2,0,0-.38-.35-.38-.35,0,.06,55.35-.68,55.15-.42h0Z"/><path class="cls-3" d="M377.31,227.48l44.15-7.7s.39-.07.39-.07c0,0-.19.35-.19.35l-13.26,24.04-.35-.38s31.29-14.49,31.29-14.49l-.18.45-18.76-45.94s.58.29.58.29c-7.51,2-26.65,7.11-33.91,9.02,0,0-11.32,2.94-11.32,2.94l-.37.1-.13-.36-8.21-22.98c-2.64-7.63-5.69-15.51-8.03-23.04,2.86,7.61,5.75,15.22,8.55,22.85l8.47,22.88-.5-.26,11.29-3.07c7.17-1.93,26.49-7.06,33.91-9.03,0,0,.42-.11.42-.11l.16.4,18.5,46.04s.13.31.13.31l-.31.14-31.36,14.34-.76.35.41-.73,13.4-23.96s.2.28.2.28c-.02-.1-44.36,7.64-44.22,7.32h0Z"/><g id="baand" class="cls-43"><path class="cls-7" d="M286.62,203.13c.97-.56,1.96-1.09,2.8-1.78.84-.69,1.56-1.52,1.93-2.52.18-.49.28-1.01.25-1.51-.02-.5-.19-.99-.38-1.51-.43-1.02-.69-2.3-.5-3.47.09-.59.26-1.18.52-1.72.26-.55.58-1.02.88-1.48.61-.89.87-1.85.66-2.86-.19-.99-.75-1.92-1.58-2.56-.82-.65-1.86-1.04-2.93-1.17l.23-.11c-1.01,1.5-.39,3.57-1.12,5.38-.32.91-1.17,1.69-2.2,1.78-.51.05-1.05-.17-1.4-.56-.37-.39-.51-.91-.56-1.39-.1-.97.06-1.91-.05-2.79-.08-.86-.6-1.6-1.31-2.06-.7-.46-1.59-.64-2.35-.41-.79.24-1.43.83-1.91,1.55-.49.72-.85,1.55-1.17,2.41-.15.43-.33.87-.35,1.21-.03.32.11.64.34,1.01.46.75,1.09,1.45,1.6,2.3.26.43.48.89.62,1.41.15.52.16,1.06.15,1.54-.05.96-.02,1.73.37,2.5.36.75.95,1.39,1.67,1.81,1.42.85,3.45.61,4.7-.55l.28-.25.26.25c.47.46.69,1.12.67,1.72,0,.61-.22,1.2-.58,1.68-.36.47-.93.84-1.52.9-.51.07-1.11.12-1.16.47l-.1-.19c.97.59,2.1.92,3.26.95v.1c-1.17.07-2.37-.17-3.45-.7l-.11-.05v-.14c.02-.39.39-.65.66-.73.28-.1.56-.14.82-.19.48-.08.85-.37,1.12-.75.25-.39.4-.87.37-1.33,0-.46-.2-.88-.5-1.16h.53c-1.46,1.43-3.84,1.83-5.7.84-.92-.49-1.65-1.29-2.11-2.21-.49-.91-.54-2.08-.49-2.97.19-1.76-1.17-3.02-2.21-4.69-.25-.41-.53-1-.46-1.62.07-.6.28-1.03.44-1.47.35-.88.75-1.77,1.32-2.59.57-.81,1.4-1.54,2.43-1.81,1.05-.28,2.15.01,2.97.62.83.59,1.42,1.56,1.46,2.59.06.99-.14,1.91-.08,2.8.03.44.12.88.41,1.18.28.31.68.49,1.11.46.86-.06,1.64-.7,1.94-1.55.65-1.69,0-3.7.99-5.52l.07-.12h.16c1.15.09,2.31.44,3.28,1.12.97.67,1.74,1.73,1.99,2.93.13.6.14,1.23,0,1.84-.13.62-.43,1.17-.73,1.66-.3.49-.62.93-.85,1.39-.23.46-.39.96-.48,1.46-.18,1.04-.02,2.05.39,3.09.18.53.37,1.12.36,1.75,0,.61-.15,1.21-.38,1.76-.48,1.09-1.3,1.98-2.25,2.61-.95.64-1.97,1.11-3,1.55l-.04-.09Z"/><path class="cls-24" d="M260.31,427.44c-2.34-9.59-3.75-19.45-3.94-29.35-.09-4.95.11-9.91.65-14.84.51-4.93,1.53-9.81,2.69-14.6,2.24-9.58,3.19-19.45,3.42-29.31.27-9.87-.12-19.74-.02-29.62.06-4.94.24-9.89.72-14.82.12-1.23.25-2.46.41-3.69.14-1.23.38-2.49.73-3.69.69-2.42,1.78-4.69,2.88-6.9,1.1-2.21,2.26-4.39,3.07-6.67.82-2.27,1.25-4.68.97-7.04-.13-1.15-.44-2.42-.52-3.68-.1-1.26-.12-2.52-.05-3.77.11-2.5.47-4.95.63-7.39.17-2.44.16-4.88-.25-7.27-.41-2.4-.88-4.88-1.05-7.36-.43-4.96,0-10.03,1.38-14.81,1.35-4.79,3.42-9.29,4.6-14.07,1.24-4.76,1.64-9.71,1.39-14.64h.1c.38,4.91.17,9.93-1.01,14.76-1.11,4.85-3.13,9.41-4.38,14.14-1.29,4.73-1.62,9.67-1.13,14.54.23,2.45.67,4.83,1.1,7.28.42,2.48.45,5.01.28,7.5-.16,2.49-.51,4.93-.61,7.37-.06,1.22-.04,2.43.06,3.63.08,1.21.35,2.35.49,3.65.28,2.55-.2,5.14-1.07,7.49-.86,2.37-2.05,4.56-3.16,6.76-1.12,2.19-2.18,4.4-2.88,6.72-.36,1.16-.6,2.33-.76,3.55-.18,1.22-.33,2.44-.46,3.66-.54,4.89-.8,9.82-.93,14.75-.26,9.86,0,19.74-.19,29.62-.21,9.87-.83,19.79-2.96,29.48-2.37,9.57-3.51,19.39-3.39,29.24.09,9.84,1.27,19.68,3.27,29.34l-.1.02Z"/><path class="cls-28" d="M278.32,194.78c.16,4.76.04,9.54-.48,14.28-.51,4.74-1.35,9.45-2.21,14.13-.86,4.68-1.62,9.37-1.91,14.09-.29,4.72-.23,9.47.31,14.18.27,2.37.69,4.65.89,7.1.13,2.42-.14,4.83-.6,7.17-.88,4.68-2.38,9.29-1.85,14.05.27,4.84-1.39,9.48-3.03,13.91-.83,2.23-1.64,4.47-2.24,6.76-.31,1.14-.56,2.3-.74,3.47-.19,1.17-.43,2.33-.55,3.51-1.25,9.42-.81,18.96-.7,28.47.14,9.51.03,19.13-1.82,28.55-1.78,9.32-2.99,18.77-3.26,28.27-.25,9.49.44,19.02,2.34,28.35l-.1.02c-2.23-9.27-3.08-18.85-2.97-28.39.11-9.55,1.16-19.08,2.97-28.45,1.76-9.31,1.96-18.84,1.89-28.35-.06-9.5-.29-19.09,1.09-28.56.14-1.19.4-2.35.61-3.53.21-1.17.48-2.35.81-3.49.65-2.3,1.49-4.54,2.32-6.77.84-2.23,1.67-4.46,2.26-6.75.61-2.29.88-4.67.75-7.02-.07-1.17-.15-2.39-.08-3.59.08-1.2.22-2.39.42-3.57.38-2.36.92-4.68,1.31-7.02.4-2.33.63-4.7.45-7.03-.23-2.3-.72-4.69-1.01-7.05-.56-4.75-.71-9.56-.37-14.33.33-4.78,1.14-9.5,2.03-14.17.89-4.68,1.86-9.33,2.45-14.05.61-4.71.92-9.46.91-14.22h.1Z"/><path class="cls-40" d="M278.51,195.63c0,4.6-.04,9.21-.33,13.81-.28,4.6-.62,9.19-1.05,13.77-.85,9.16-1.66,18.33-1.58,27.51,0,4.59.29,9.17.71,13.75l.41,3.42c.13,1.13.3,2.29.3,3.46,0,2.33-.44,4.63-1.02,6.86-.58,2.23-1.33,4.42-1.98,6.62-.64,2.2-1.3,4.42-1.49,6.69-.13,2.28-.19,4.6-.48,6.89-.26,2.29-.63,4.58-1.11,6.83-.47,2.26-1.03,4.5-1.64,6.72-.61,2.23-1.31,4.41-1.69,6.66-.85,4.49-.93,9.08-.86,13.67.09,4.59.39,9.18.47,13.8.13,4.61-.17,9.28-.83,13.84-1.19,9.13-2.58,18.22-3.2,27.39-.61,9.15-.43,18.41,1.36,27.44l-.1.02c-2.13-8.98-2.46-18.31-1.98-27.51.46-9.22,1.68-18.37,2.9-27.48,1.43-9.08.58-18.26.44-27.49-.06-4.61.1-9.27,1.04-13.83.43-2.29,1.18-4.49,1.81-6.69.64-2.21,1.23-4.42,1.74-6.66,1.03-4.48,1.61-9.03,1.77-13.64.21-2.32.89-4.55,1.54-6.75.67-2.2,1.37-4.4,1.94-6.62.56-2.22.99-4.49.95-6.76-.02-1.13-.21-2.25-.37-3.4l-.48-3.42c-.52-4.58-.92-9.18-.99-13.8-.05-4.61.06-9.23.4-13.83.34-4.6.79-9.18,1.25-13.76.96-9.15,1.81-18.31,2.05-27.51h.1Z"/><path class="cls-12" d="M278.7,196.48c-.23,17.85-1.39,35.66-1.38,53.49,0,8.91.25,17.83,1.12,26.7.23,2.22.52,4.41.69,6.67.05,2.27-.51,4.48-1.15,6.62-1.32,4.28-3.18,8.36-4.6,12.56-.35,1.05-.65,2.12-.84,3.19-.16,1.09-.29,2.19-.33,3.29-.11,2.21-.04,4.43-.04,6.67,0,2.24-.08,4.5-.51,6.74-.19,1.12-.53,2.22-.9,3.29l-.66,1.57c-.22.49-.42,1-.58,1.51-1.35,4.16-.87,8.67-.37,13.06.26,2.21.54,4.43.66,6.69.13,2.27-.02,4.52-.14,6.75-.56,8.95-2.21,17.74-3.28,26.58-1.06,8.82-1.53,17.81.18,26.59l-.1.02c-1-4.35-1.48-8.83-1.52-13.3-.05-4.47.26-8.94.72-13.39.91-8.89,2.4-17.7,2.97-26.57.12-2.22.26-4.43.12-6.62-.12-2.2-.4-4.41-.64-6.63-.24-2.22-.47-4.46-.47-6.73,0-2.26.24-4.56.97-6.74.18-.55.39-1.08.63-1.6l.65-1.51c.36-1.03.69-2.07.9-3.14.45-2.14.58-4.35.61-6.57.04-2.22,0-4.46.15-6.7.06-1.12.21-2.24.39-3.36.21-1.12.54-2.2.92-3.26,1.5-4.23,3.47-8.24,4.78-12.49.65-2.12,1.21-4.3,1.17-6.51-.14-2.19-.49-4.43-.72-6.64-.91-8.88-1.48-17.8-1.61-26.73-.16-17.87,1.21-35.68,2.11-53.49h.1Z"/><path class="cls-9" d="M257.76,406.51c-.55-.9-1.49-1.49-2.5-1.69-1.01-.21-2.07-.11-3.03.22-1.94.68-3.31,2.41-4.41,4.15-1.12,1.77-2.03,3.74-3.4,5.46-.67.87-1.49,1.65-2.46,2.25-.97.6-2.08.93-3.16,1.08-4.31.39-8.53.49-12.79.84-4.25.29-8.5.7-12.74,1.12-4.24.45-8.5.77-12.64,1.61-4.13.84-8.21,2.27-12.58,2.58-2.16.18-4.4-.02-6.49-.52-2.1-.47-4.13-1.08-6.21-1.29-1.04-.1-2.08-.14-3.08.05-1.01.19-1.99.56-2.88,1.09-.88.54-1.7,1.21-2.26,2.09-.56.87-.85,1.92-.74,2.98h-.1c-.19-1.05.03-2.18.57-3.14.54-.96,1.35-1.75,2.26-2.35.92-.61,1.94-1.05,3.01-1.3,1.08-.25,2.2-.27,3.28-.19,2.18.16,4.27.73,6.34,1.13,2.07.42,4.12.63,6.21.44,4.17-.35,8.24-1.68,12.47-2.47,4.24-.8,8.52-.97,12.77-1.23,8.5-.47,17.04-1.24,25.45-2.23,1.02-.16,1.99-.47,2.83-1.01.85-.54,1.58-1.26,2.23-2.05,1.32-1.6,2.25-3.52,3.44-5.33,1.17-1.78,2.72-3.56,4.9-4.24,1.06-.32,2.21-.35,3.27-.05,1.06.28,2.03.99,2.51,1.97l-.09.05Z"/><path class="cls-25" d="M258.35,411.44c-.71-.72-1.77-.94-2.74-.9-.99.05-1.96.36-2.79.86-1.7,1.04-2.86,2.73-4.09,4.35-1.22,1.6-2.61,3.37-4.75,4.1-1.04.36-2.13.41-3.17.39-1.04-.03-2.05-.1-3.08-.16-2.04-.16-4.06-.35-6.09-.38-2.03-.04-4.07.08-6.09.3-4.06.41-8.06,1.22-12.12,1.76l-12.17,1.37c-4.04.5-8.12,1.13-12.27.96-1.04-.04-2.07-.13-3.1-.27-1.02-.18-2.04-.35-3.05-.56-1.99-.44-3.97-.91-5.95-.86-.98.04-1.96.17-2.85.57-.9.39-1.79.93-2.68,1.41-.89.5-1.78.99-2.61,1.57-.82.58-1.63,1.23-2.07,2.15l-.09-.04c.39-.98,1.18-1.72,1.97-2.36.81-.65,1.67-1.21,2.54-1.75.88-.53,1.72-1.09,2.67-1.57.96-.48,2.04-.69,3.09-.75,2.12-.11,4.17.33,6.17.7l2.99.5c1,.13,2,.21,3,.24,4.03.11,8.07-.43,12.13-.87,4.07-.4,8.14-.68,12.22-.98,4.06-.38,8.09-1.05,12.15-1.56,2.03-.24,4.07-.44,6.13-.51,2.06-.07,4.11.03,6.15.11,2.03.07,4.11.32,5.92-.23,1.82-.57,3.17-2.16,4.42-3.74,1.25-1.58,2.57-3.29,4.43-4.33.93-.53,2-.77,3.05-.75,1.04.02,2.15.34,2.82,1.17l-.08.07Z"/><path class="cls-32" d="M258.95,416.38c-.95-.27-1.96-.1-2.88.17-.94.29-1.77.79-2.57,1.36-1.6,1.14-2.93,2.66-4.75,3.7-.9.52-1.98.82-3.02.86-1.05.05-2.07-.08-3.06-.23-1.99-.29-3.93-.79-5.88-1.11-3.87-.74-7.88-.42-11.78.36-1.96.35-3.9.82-5.86,1.23-1.96.39-3.93.77-5.92,1.01-3.98.51-7.98.67-11.98.74-4,.06-8.03-.04-12.01-.61-1.99-.27-3.98-.68-5.91-1.07-1.92-.37-3.91-.64-5.74-.17-.92.24-1.72.68-2.46,1.34-.74.65-1.58,1.3-2.48,1.76-1.81.96-3.79,1.36-5.69,1.96l-.03-.09c1.86-.73,3.79-1.3,5.47-2.31.85-.49,1.57-1.11,2.3-1.81.72-.71,1.67-1.32,2.68-1.6,2.05-.58,4.15-.34,6.12-.02,1.99.33,3.91.75,5.88.99,3.93.49,7.89.68,11.87.69,3.98-.01,7.96-.03,11.93-.35,3.97-.3,7.86-1.19,11.76-2.04,1.96-.4,3.93-.77,5.93-.96,2-.2,4.05-.17,6.05.12,1.99.31,3.94.73,5.89,1.06,1.93.34,3.92.52,5.58-.44,1.68-.91,3.13-2.34,4.82-3.46.84-.56,1.78-1.03,2.78-1.26.98-.22,2.05-.32,3.01.06l-.04.09Z"/><path class="cls-29" d="M259.57,421.31c-1.75.98-3.52,1.93-5.43,2.61-1.9.66-3.98,1.07-6.03.82-4.11-.46-7.72-2.51-11.6-2.91-3.9-.45-7.87.44-11.71,1.5-1.94.5-3.86,1.08-5.82,1.48-1.97.4-3.96.69-5.96.87-4.01.33-8.06.16-12.04-.32-3.99-.46-7.95-1.17-11.87-1.96-1.97-.37-3.92-.84-5.85-1.04-1.91-.2-3.95-.06-5.41,1.11-.73.56-1.22,1.42-1.93,2.2-.71.79-1.67,1.34-2.66,1.63-2.02.56-4.07.26-6.03-.03v-.1c1.99.17,4.04.26,5.88-.35.91-.31,1.72-.84,2.32-1.57.6-.72,1.07-1.68,1.92-2.38.82-.7,1.85-1.13,2.88-1.33,1.04-.2,2.08-.22,3.11-.14,2.06.15,4,.65,5.97.99,7.84,1.48,15.7,3.04,23.68,2.75,1.98-.11,3.97-.27,5.93-.67,1.96-.37,3.88-.91,5.8-1.47,1.92-.55,3.85-1.11,5.82-1.53,1.97-.39,4.01-.64,6.06-.46,4.15.34,7.73,2.48,11.61,2.97,1.93.27,3.89.02,5.78-.56,1.89-.57,3.72-1.39,5.55-2.2l.04.09Z"/><path class="cls-39" d="M156.48,437.42c-2.43,1.36-4.51,3.27-6.28,5.39-1.78,2.13-3.24,4.5-4.56,6.94-2.62,4.9-4.49,10.16-5.94,15.52-2.86,10.75-4.02,21.87-6.22,32.81-.54,2.74-1.13,5.47-1.81,8.18-.69,2.71-1.53,5.39-2.47,8.02-1.87,5.27-4.07,10.39-6.09,15.58-2,5.19-3.92,10.44-4.94,15.91-.51,2.73-.84,5.5-.87,8.27-.02,2.76.22,5.56.24,8.35.22,11.16-.61,22.35-2.53,33.35-.96,5.5-2.22,10.95-3.68,16.34-.74,2.7-1.49,5.36-2.36,8.06-.98,2.65-2.13,5.18-3.24,7.74-4.51,10.19-8.87,20.44-12.52,30.95-3.67,10.5-6.72,21.23-8.63,32.18-1.9,10.93-2.63,22.14-1.1,33.13.8,5.47,2.14,10.89,4.29,15.98,1.07,2.55,2.31,5.02,3.73,7.39.73,1.17,1.48,2.33,2.29,3.45.38.52.89,1.24,1.07,1.97.22.73.29,1.47.32,2.19.05,2.9-.62,5.66-1.36,8.37-.76,2.7-1.68,5.35-2.66,7.97-1.98,5.23-4.23,10.34-6.57,15.4-4.7,10.12-9.79,20.04-15,29.9-10.44,19.71-21.38,39.13-32.27,58.58-5.44,9.73-10.89,19.45-16.21,29.24-2.65,4.9-5.28,9.81-7.78,14.79-1.25,2.49-2.47,4.99-3.61,7.53-.57,1.27-1.12,2.55-1.61,3.85-.49,1.3-.96,2.62-1.2,3.98l-.1-.02c.23-1.38.7-2.71,1.18-4.01.49-1.31,1.03-2.59,1.59-3.87,1.12-2.55,2.33-5.07,3.56-7.57,2.47-5,5.06-9.93,7.68-14.85,5.25-9.83,10.65-19.59,16.06-29.33,10.81-19.49,21.69-38.95,32.05-58.68,5.17-9.87,10.22-19.8,14.87-29.92,2.32-5.06,4.54-10.17,6.49-15.37.97-2.6,1.87-5.23,2.61-7.89.71-2.66,1.35-5.39,1.29-8.08-.02-.67-.1-1.33-.28-1.93-.18-.63-.49-1.07-.93-1.68-.83-1.14-1.59-2.32-2.33-3.52-1.45-2.41-2.71-4.93-3.8-7.52-2.18-5.18-3.55-10.68-4.35-16.22-1.55-11.13-.8-22.44,1.12-33.43,3.89-22.07,12.19-43.02,21.25-63.35,1.11-2.55,2.27-5.1,3.21-7.68.84-2.61,1.61-5.31,2.35-7.98,1.46-5.36,2.7-10.79,3.7-16.26,2.04-10.93,3.05-22.06,2.92-33.19,0-2.79-.21-5.55-.16-8.36.05-2.8.41-5.59.95-8.33,1.11-5.48,2.87-10.8,4.85-16.01,1.97-5.22,4.11-10.37,5.91-15.63.91-2.63,1.71-5.29,2.37-7.98.65-2.7,1.21-5.43,1.72-8.16,1.99-10.94,3.41-22.04,6.36-32.84,1.51-5.38,3.46-10.66,6.15-15.58,1.34-2.46,2.92-4.79,4.76-6.9,1.84-2.1,3.99-3.98,6.47-5.28l.05.09Z"/><path class="cls-11" d="M156.88,438.31c-1.62,1.31-2.95,2.96-4.04,4.73-1.09,1.77-1.96,3.68-2.68,5.63-1.43,3.92-2.29,8.02-2.81,12.16h0s0,.02,0,.02c-2.29,10.1-4.25,20.27-6.34,30.42-1.05,5.07-2.13,10.14-3.32,15.19-.6,2.52-1.2,5.04-1.9,7.55-.72,2.5-1.51,4.98-2.38,7.42-1.72,4.9-3.61,9.72-5.24,14.62-1.61,4.9-3.04,9.88-3.57,15-.3,2.54-.3,5.13-.4,7.73-.12,2.59-.27,5.18-.5,7.77-.43,5.17-1.07,10.32-1.83,15.45-.77,5.13-1.66,10.23-2.61,15.33l-1.44,7.64c-.49,2.54-.95,5.1-1.61,7.61-2.63,10.03-5.62,19.95-8.23,29.97-2.61,10.02-5.04,20.1-7.05,30.25-2.03,10.15-3.67,20.39-4.56,30.7-.42,5.15-.66,10.32-.6,15.49.06,5.16.45,10.33,1.4,15.39.23,1.27.55,2.51.82,3.77.14.59.29,1.37.27,2.02.04.68-.06,1.33-.11,2-.33,2.62-.96,5.15-1.63,7.66-1.37,5.02-3.05,9.93-4.77,14.82-3.48,9.77-7.26,19.42-11.13,29.04-3.88,9.61-7.85,19.18-11.88,28.73-8.01,19.11-16.36,38.08-24.58,57.1-4.11,9.51-8.22,19.02-12.22,28.57-1.99,4.78-4,9.56-5.9,14.37-.95,2.41-1.9,4.82-2.78,7.25-.87,2.43-1.75,4.88-2.32,7.4l-.1-.02c.54-2.54,1.38-5,2.23-7.45.85-2.45,1.76-4.87,2.69-7.3,1.85-4.84,3.77-9.65,5.74-14.44,3.94-9.59,7.97-19.13,12.02-28.67l24.32-57.2c4.03-9.54,8.01-19.1,11.9-28.71,3.88-9.6,7.67-19.24,11.15-28.99,1.72-4.88,3.39-9.78,4.76-14.75.67-2.49,1.29-5,1.62-7.52.05-.63.15-1.27.11-1.88,0-.31,0-.62-.06-.91-.04-.28-.09-.59-.17-.92-.27-1.28-.59-2.54-.81-3.83-.92-5.13-1.28-10.34-1.31-15.53-.03-5.2.24-10.38.7-15.55,1.98-20.68,6.65-40.95,11.94-60.97l4.05-15.01c1.36-5,2.77-9.98,4.03-15,.65-2.5,1.09-5.04,1.56-7.6l1.4-7.64c.91-5.1,1.78-10.2,2.52-15.32.73-5.12,1.33-10.26,1.74-15.42.21-2.58.35-5.16.45-7.74.09-2.57.08-5.18.36-7.79.52-5.21,1.92-10.26,3.55-15.19,1.67-4.92,3.59-9.74,5.32-14.61.88-2.43,1.68-4.89,2.41-7.36.71-2.47,1.32-5,1.93-7.51,1.22-5.03,2.33-10.09,3.4-15.15,2.15-10.13,4.15-20.3,6.53-30.39v.02c.58-4.15,1.5-8.27,2.99-12.19.75-1.96,1.65-3.86,2.77-5.64,1.12-1.77,2.48-3.41,4.13-4.71l.06.08Z"/><path class="cls-2" d="M157.28,439.2c-1.47,2.19-2.19,4.8-2.44,7.41-.12,1.31-.13,2.63-.02,3.93.11,1.3.33,2.61.75,3.84v.04s0,.04,0,.04c-4.34,20.41-8.77,40.82-14,61.03-2.5,10.17-6.6,19.85-9.04,29.95-.6,2.52-1.1,5.07-1.4,7.65-.31,2.59-.63,5.19-.98,7.77-.7,5.17-1.49,10.33-2.24,15.49-.76,5.16-1.48,10.32-2.07,15.5l-.81,7.78c-.26,2.6-.63,5.19-.98,7.78-1.49,10.33-3.25,20.62-5.06,30.9-3.59,20.56-7.38,41.09-11.51,61.55-1.03,5.12-2.08,10.23-3.19,15.33-.54,2.55-1.1,5.1-1.69,7.65-.53,2.55-1.24,5.08-1.92,7.61-2.88,10.04-6.02,19.99-9.14,29.95l-18.96,59.67-19.14,59.61-9.47,29.83c-3.09,9.96-6.35,19.88-9.01,29.97l-.1-.02c2.54-10.13,5.63-20.1,8.64-30.09l9.26-29.9c6.23-19.92,12.49-39.83,18.88-59.69l19.01-59.65,4.67-14.94c1.55-4.98,3.09-9.97,4.56-14.96.69-2.5,1.41-5,1.96-7.55.6-2.54,1.18-5.08,1.74-7.63,1.14-5.09,2.23-10.19,3.29-15.3,8.29-40.89,16.38-81.9,20.33-123.48.73-5.17,1.49-10.33,2.16-15.5.34-2.58.64-5.17.94-7.76.29-2.61.78-5.2,1.37-7.75,1.17-5.12,2.86-10.08,4.53-15.02,1.68-4.94,3.32-9.87,4.61-14.93,5.38-20.16,9.79-40.56,14.42-60.91v.09c-.4-1.28-.6-2.6-.7-3.92-.09-1.32-.07-2.66.07-3.97.29-2.63,1.05-5.25,2.56-7.44l.08.06Z"/><path class="cls-15" d="M157.68,440.07c-.24,1.96.16,4.01,1.19,5.68.51.83,1.19,1.57,2.04,2.02.84.47,1.86.52,2.71.1l.37-.18-.08.41c-2.12,10.4-4.42,20.77-6.83,31.1-1.22,5.17-2.42,10.34-3.74,15.48-1.33,5.14-2.68,10.27-4.07,15.39-2.76,10.25-5.76,20.44-8.65,30.64-1.45,5.1-2.85,10.22-4.03,15.39-1.16,5.17-2.07,10.4-2.64,15.66-.57,5.27-.75,10.57-.6,15.85.12,5.32-.03,10.63-.28,15.94-.51,10.61-1.46,21.2-2.84,31.74-1.38,10.53-3.16,21.02-5.54,31.38-2.41,10.35-5.37,20.61-9.65,30.39-2.15,4.87-4.65,9.62-7.77,13.97-.78,1.1-1.65,2.11-2.3,3.2-.69,1.09-1.25,2.29-1.8,3.48-1.09,2.39-2.03,4.87-2.92,7.36-3.53,9.98-6.32,20.23-9.08,30.46-5.45,20.5-10.28,41.17-14.98,61.87-4.68,20.7-9.17,41.45-13.59,62.2l-6.64,31.14-3.35,15.56c-1.15,5.18-2.25,10.37-3.56,15.52l-.1-.03c1.27-5.15,2.34-10.35,3.45-15.54l3.25-15.58,6.46-31.18c4.35-20.78,8.76-41.54,13.36-62.26,4.62-20.72,9.38-41.41,14.75-61.96,1.35-5.14,2.76-10.26,4.25-15.35,1.49-5.1,3.06-10.18,4.85-15.19.9-2.5,1.85-5,2.96-7.43.57-1.21,1.14-2.43,1.86-3.58.33-.58.78-1.15,1.16-1.68.4-.52.81-1.03,1.18-1.58,3.07-4.27,5.55-8.96,7.68-13.79,4.25-9.68,7.21-19.9,9.62-30.21,2.38-10.32,4.17-20.78,5.55-31.29,1.37-10.51,2.37-21.07,2.95-31.66.27-5.29.46-10.59.37-15.88-.09-5.32.18-10.65.79-15.93.62-5.28,1.58-10.52,2.79-15.69.61-2.59,1.29-5.15,1.98-7.72l2.05-7.69c2.79-10.24,5.67-20.46,8.33-30.73,1.34-5.13,2.64-10.28,3.92-15.42l3.85-15.44c2.53-10.3,4.87-20.65,7.18-31.01l.28.23c-.97.46-2.14.35-3.03-.18-.91-.51-1.59-1.31-2.1-2.18-1.01-1.76-1.37-3.85-1.07-5.83h.1Z"/><path class="cls-23" d="M47.75,942.55c3.75-20.92,7.83-41.78,12.02-62.62,4.2-20.83,8.46-41.66,13.19-62.39,4.69-20.73,9.56-41.43,15.03-61.97,1.38-5.13,2.73-10.27,4.27-15.36l2.21-7.66,2.45-7.59,1.23-3.79c.43-1.26.95-2.48,1.42-3.73l1.45-3.72c.47-1.25.97-2.48,1.51-3.69,2.11-4.87,4.06-9.81,5.85-14.81,3.6-9.99,6.66-20.17,9.28-30.45,1.31-5.14,2.5-10.32,3.55-15.52,1.06-5.2,1.91-10.43,2.76-15.68,1.67-10.49,3.21-21,4.4-31.55l1.48-15.85.74-7.96c.32-2.65.71-5.28,1.15-7.91,1.76-10.51,4.43-20.82,6.87-31.16l7.54-30.98c2.57-10.31,5.32-20.6,8.67-30.7,1.68-5.04,3.45-10.05,4.77-15.19,1.31-5.13,2.31-10.38,2.32-15.69l.1.11c-1.62-.26-3.02-1.12-4.29-2.08-.63-.49-1.22-1.03-1.75-1.62-.52-.6-1.02-1.25-1.23-2.05l.1-.02c.2.75.71,1.4,1.23,1.98.53.58,1.13,1.11,1.76,1.58,1.26.93,2.67,1.76,4.22,1.99h.1s0,.11,0,.11c.06,5.34-.88,10.63-2.12,15.8-1.28,5.17-3.02,10.21-4.67,15.25-3.28,10.1-5.94,20.39-8.44,30.71l-7.33,31.02c-2.45,10.34-5.13,20.63-6.88,31.09-.44,2.61-.83,5.23-1.15,7.86l-.75,7.91-1.5,15.89c-1.21,10.57-2.75,21.09-4.44,31.59-1.61,10.51-3.77,20.96-6.49,31.24-2.69,10.29-5.84,20.46-9.5,30.45-1.82,5-3.79,9.94-5.93,14.81-.55,1.21-1.05,2.44-1.53,3.68l-1.46,3.7c-.48,1.24-1,2.46-1.43,3.71l-1.25,3.78-2.48,7.57-2.24,7.65c-1.51,5.09-2.83,10.24-4.18,15.38-5.34,20.57-10.08,41.28-14.66,62.03l-6.71,31.16c-2.22,10.39-4.43,20.79-6.57,31.19-2.16,10.4-4.27,20.82-6.35,31.24l-6.24,31.26-.1-.02Z"/><path class="cls-10" d="M46.57,943.28c.66-5.29,1.53-10.56,2.41-15.82.91-5.26,1.81-10.51,2.82-15.75,1.96-10.49,4.02-20.95,6.12-31.41,4.21-20.91,8.58-41.79,13.33-62.59,4.71-20.81,9.59-41.58,14.87-62.24,2.66-10.33,5.39-20.64,8.22-30.93,1.47-5.13,2.98-10.25,4.51-15.35,1.57-5.1,3.07-10.21,4.56-15.33,2.96-10.24,5.76-20.53,8.38-30.87,2.62-10.34,5-20.72,6.86-31.22l5.91-31.44,2.64-15.78,1.41-7.89c.52-2.62,1.08-5.23,1.68-7.83l3.66-15.58c1.24-5.18,2.21-10.43,3.3-15.64l3.25-15.66c1.08-5.22,2.13-10.45,3.33-15.66,2.38-10.4,5.22-20.75,9.44-30.59,2.11-4.9,4.43-9.72,5.87-14.83.72-2.55,1.26-5.17,1.51-7.81.24-2.64.23-5.33-.39-7.91l.03.06c-1.17-1.03-2.48-1.92-3.88-2.63-.7-.35-1.42-.66-2.18-.86-.73-.19-1.6-.32-2.23.14l-.06-.08c.69-.51,1.57-.37,2.32-.19.77.19,1.51.5,2.22.84,1.42.7,2.75,1.58,3.95,2.61l.03.02v.03c.67,2.61.72,5.33.51,7.99-.22,2.67-.72,5.31-1.42,7.9-1.41,5.18-3.71,10.04-5.78,14.94-4.13,9.82-6.88,20.15-9.19,30.54-4.41,20.84-8.11,41.91-13.35,62.58-.59,2.6-1.16,5.2-1.68,7.81l-1.41,7.86-2.66,15.78-5.94,31.45c-1.85,10.51-4.36,20.91-7.04,31.23-2.68,10.33-5.57,20.6-8.58,30.83-13.11,40.62-22.66,82.25-31.91,123.87-4.54,20.84-9.09,41.67-13.42,62.56-2.15,10.44-4.28,20.9-6.29,31.37-2.01,10.47-4.12,20.93-5.63,31.48h-.1Z"/><path class="cls-18" d="M45.4,944.02c.32-5.49,1.21-10.91,2.07-16.33.89-5.42,1.86-10.82,2.87-16.21,2.02-10.79,4.18-21.55,6.42-32.29,4.48-21.49,9.17-42.93,13.93-64.35,4.77-21.42,9.62-42.83,14.53-64.22,4.94-21.39,9.98-42.75,15.02-64.11l15.22-64.06c1.26-5.34,2.58-10.67,3.79-16.02l3.7-16.04c1.26-5.34,2.62-10.66,4.05-15.96,1.44-5.3,2.99-10.56,4.38-15.86,2.82-10.59,4.61-21.41,6.28-32.25,1.7-10.83,3.33-21.72,6.19-32.37,1.42-5.32,3.22-10.55,5.53-15.56,2.25-5.05,5.34-9.64,7.57-14.61,1.12-2.48,2-5.07,2.51-7.75.5-2.67.68-5.42.29-8.1-.2-1.34-.54-2.66-1.1-3.89-.57-1.21-1.44-2.3-2.57-3.04-1.11-.73-2.52-1.08-3.83-.73-1.31.34-2.38,1.33-3.07,2.49l-.09-.05c.67-1.19,1.74-2.24,3.11-2.63,1.36-.39,2.85-.06,4.03.68,1.19.75,2.13,1.86,2.75,3.11.61,1.26.99,2.61,1.22,3.98.82,5.52-.45,11.14-2.65,16.18-2.2,5.08-5.23,9.69-7.39,14.7-2.24,4.98-3.89,10.2-5.35,15.47-5.69,21.15-6.67,43.35-12.65,64.57-1.45,5.3-3.07,10.55-4.56,15.82-1.5,5.27-2.89,10.58-4.19,15.91-2.59,10.66-5.11,21.34-7.52,32.05l-3.67,16.05-3.76,16.03-7.51,32.05-14.87,64.14c-4.97,21.38-9.88,42.77-14.71,64.18-4.82,21.41-9.58,42.84-14.11,64.31-2.26,10.74-4.49,21.48-6.59,32.25-1.05,5.39-2.06,10.78-2.98,16.18-.9,5.41-1.83,10.83-2.19,16.3h-.1Z"/><path class="cls-4" d="M320.3,420.36c-2.01-4.05-3.03-8.57-3.3-13.08-.31-4.52-.14-9.05-.12-13.54.04-4.49-.13-9-1.17-13.34-.99-4.34-2.94-8.42-4.76-12.55-1.8-4.15-3.27-8.44-4.52-12.79-.55-2.19-1.11-4.38-1.58-6.59-.4-2.22-.93-4.42-1.22-6.66-1.38-8.92-2-17.94-2.27-26.96-.25-9.02-.24-18.04-.37-27.05-.1-9.01-.58-18-1.51-26.95-.44-4.48-1.04-8.94-1.65-13.4-.61-4.46-1.3-8.91-2.05-13.36-1.5-8.89-3.23-17.74-4.89-26.6l.1-.02c2,8.79,3.87,17.62,5.51,26.49,1.65,8.87,3.09,17.79,4.01,26.78.46,4.49.88,8.99,1.08,13.51.11,2.26.17,4.51.25,6.77.03,2.26.09,4.51.1,6.77.07,9.03-.15,18.04-.03,27.05.11,9,.59,18.03,2.06,26.92.31,2.23.84,4.42,1.28,6.63.51,2.19,1.12,4.36,1.71,6.53,1.33,4.3,2.89,8.51,4.75,12.6,1.82,4.1,3.88,8.2,4.86,12.68,1.03,4.46,1.16,9.04,1.08,13.55-.06,4.52-.35,9.02-.12,13.5.18,4.48.99,8.97,2.87,13.07l-.09.04Z"/><path class="cls-35" d="M290.66,205.23c2.47,8.64,4.71,17.35,6.62,26.14,1.84,8.79,3.71,17.63,4.19,26.66.43,9.01-.13,17.99-.12,26.98-.08,8.98.21,17.98,1.35,26.88,1.09,8.91,2.85,17.72,4.39,26.58,1.59,8.85,2.72,17.78,5.1,26.4,1.16,4.32,2.61,8.61,3.39,13.08.8,4.46,1.07,8.98,1.24,13.47.17,4.49.23,8.98.61,13.45.09,1.11.23,2.21.55,3.27.31,1.06.77,2.09,1.15,3.15.77,2.13,1.19,4.37,1.37,6.61h-.1c-.25-2.22-.74-4.42-1.57-6.5-.41-1.04-.9-2.05-1.26-3.14-.38-1.08-.53-2.23-.64-3.35-.46-4.48-.6-8.98-.85-13.46-.24-4.48-.59-8.95-1.45-13.33-.85-4.37-2.25-8.64-3.45-12.98-2.47-8.71-3.52-17.68-5.03-26.52-1.49-8.85-3.03-17.72-4-26.67-.99-8.95-1.14-17.96-1.16-26.94v-13.48c0-4.49-.06-8.98-.36-13.45-.26-4.47-.9-8.9-1.62-13.33-.73-4.42-1.59-8.83-2.49-13.23-1.8-8.8-3.83-17.55-5.96-26.27l.1-.03Z"/><path class="cls-5" d="M290.32,203c2.94,8.52,5.53,17.17,7.73,25.92,1.08,4.38,2.11,8.77,2.99,13.2.88,4.43,1.46,8.95,1.5,13.49.03,4.53-.37,9.04-.73,13.52-.37,4.49-.67,8.98-.76,13.48-.24,8.99.37,18.04,2.4,26.81,1.94,8.78,4.84,17.34,6.53,26.24,1.79,8.91,1.69,18.01,2.73,26.91.57,4.46,1.3,8.91,1.88,13.37.58,4.48.99,8.97,1.4,13.46.41,4.49.82,8.97,1.39,13.43.14,1.11.33,2.2.85,3.17.5.97,1.24,1.85,1.79,2.85,1.09,2.02,1.34,4.48.6,6.63l-.09-.03c.66-2.14.33-4.54-.78-6.44-.56-.95-1.32-1.8-1.89-2.81-.6-1.01-.8-2.19-.97-3.3-.65-4.47-1.13-8.95-1.62-13.43-.49-4.48-.97-8.95-1.62-13.4-.67-4.46-1.35-8.91-1.96-13.38-1.1-8.99-.93-18.04-2.62-26.86-1.62-8.83-4.32-17.46-6.14-26.3-.93-4.42-1.51-8.91-1.86-13.41-.33-4.5-.4-9.01-.34-13.52.07-4.51.29-9.01.55-13.51.27-4.5.56-8.99.46-13.47-.05-4.48-.71-8.92-1.54-13.33-.84-4.41-1.83-8.81-2.87-13.18-2.08-8.76-4.47-17.44-7.08-26.07l.1-.03Z"/><path class="cls-22" d="M289.98,200.76c3.41,8.43,6.37,17.05,8.87,25.81,1.23,4.39,2.4,8.78,3.38,13.24.99,4.45,1.56,9.05,1.37,13.64-.18,4.58-.92,9.09-1.56,13.58-.65,4.49-1.14,9.01-1.29,13.55-.39,9.06.61,18.23,3.55,26.82,2.8,8.61,6.84,16.87,8.66,25.9.96,4.5,1.1,9.13.97,13.68-.13,4.57-.57,9.1-.7,13.62-.25,9.05.64,18.11,1.96,27.09.66,4.49,1.42,8.98,2.18,13.45.19,1.11.53,2.16,1.28,2.97.72.84,1.67,1.52,2.35,2.48,1.38,1.92,1.23,4.72-.29,6.46l-.08-.06c1.44-1.76,1.47-4.46.11-6.21-.67-.89-1.62-1.53-2.41-2.38-.85-.84-1.25-2.05-1.45-3.16-.84-4.48-1.67-8.94-2.41-13.44-1.49-8.97-2.56-18.08-2.28-27.23.13-4.57.53-9.1.69-13.62.16-4.52.06-9.05-.85-13.47-1.73-8.88-5.55-17.22-8.26-25.91-1.39-4.34-2.32-8.83-2.86-13.36-.52-4.53-.64-9.09-.52-13.64.14-4.55.55-9.09,1.08-13.61.54-4.52,1.18-9.02,1.28-13.54.17-4.52-.47-9-1.4-13.43-.94-4.43-2.08-8.83-3.26-13.21-2.38-8.76-5.13-17.43-8.23-25.98l.09-.04Z"/><path class="cls-8" d="M321.83,412.24c3.99-1.4,8.67-.84,12.23,1.58,1.79,1.21,3.22,2.81,4.66,4.33,1.42,1.54,3,2.9,4.66,4.16,3.33,2.5,7.14,4.33,11.07,5.71,3.95,1.36,8.04,2.31,12.18,2.97,8.29,1.31,16.73,1.68,25.09,2.86,2.09.3,4.17.65,6.23,1.08,2.06.45,4.12.94,6.09,1.73,1.96.79,3.86,1.81,5.46,3.24.78.73,1.51,1.53,2.06,2.46.54.93.92,1.96,1.12,3.02l.17.89-.58-.71c-1.42-1.72-3.6-2.63-5.78-2.97-2.21-.35-4.48-.12-6.73.14-2.25.29-4.57.52-6.87.44-2.31-.06-4.61-.36-6.86-.88-4.5-1.02-8.77-3.08-12.54-5.68-1.9-1.26-3.79-2.51-5.79-3.5-2.01-.96-4.15-1.65-6.35-2.09-4.41-.9-8.98-.95-13.54-1.32-2.28-.2-4.57-.47-6.83-.95-2.27-.47-4.44-1.27-6.58-1.99-2.14-.71-4.35-1.35-6.56-1.23-1.1.06-2.18.36-3.12.91-.96.54-1.87,1.34-3.12,1.58-.31.05-.67.03-.98-.12-.31-.16-.55-.41-.7-.71-.28-.62-.22-1.22-.23-1.78l.03-3.42.06-6.84h.1s.16,6.84.16,6.84l.08,3.41c.02.57,0,1.15.22,1.58.23.43.68.65,1.18.54,1.03-.2,1.91-.97,2.91-1.57,1.01-.62,2.19-.96,3.36-1.05,2.37-.17,4.65.47,6.83,1.14,2.19.7,4.32,1.44,6.53,1.86,2.21.44,4.46.67,6.73.82,4.52.33,9.12.37,13.67,1.28,2.27.45,4.5,1.15,6.61,2.16,2.1,1.02,4,2.34,5.89,3.6,3.72,2.6,7.79,4.6,12.19,5.64,2.19.52,4.42.86,6.67.95,2.25.12,4.5-.07,6.77-.32,2.27-.22,4.6-.43,6.9-.02,2.27.4,4.57,1.39,6.05,3.26l-.42.18c-.17-1.01-.51-1.99-1.01-2.89-.51-.89-1.19-1.69-1.95-2.39-1.54-1.4-3.4-2.41-5.33-3.21-1.94-.79-3.98-1.31-6.04-1.73-2.06-.41-4.14-.75-6.22-1.03-8.34-1.09-16.79-1.16-25.16-2.4-4.18-.65-8.34-1.54-12.34-2.99-3.99-1.43-7.85-3.33-11.24-5.92-1.69-1.29-3.27-2.75-4.68-4.32-1.42-1.56-2.79-3.15-4.48-4.35-3.36-2.4-7.89-3.17-11.91-1.91l-.03-.09Z"/><path class="cls-19" d="M320.62,414.95c.76.6,1.28,1.43,1.78,2.22.5.81.98,1.61,1.55,2.35,1.13,1.49,2.42,2.88,3.65,4.31.63.7,1.22,1.45,1.89,2.1l1.01.95c.31.33.6.39,1,.35.39-.04.81-.22,1.21-.41.4-.2.84-.43,1.32-.62.95-.35,1.97-.43,2.95-.38,1.97.12,3.81.73,5.61,1.3,1.79.62,3.6,1.01,5.42,1.4,3.69.59,7.48.69,11.26,1.09,1.89.21,3.78.5,5.62,1,1.84.49,3.62,1.24,5.28,2.14,1.67.89,3.3,1.85,5.02,2.61,1.71.77,3.5,1.38,5.33,1.81,3.67.86,7.45,1.04,11.19.6,1.88-.19,3.8-.38,5.74-.14,1.92.24,3.9.92,5.34,2.4l-.79.32c0-1.1-.43-2.15-1.19-2.94-.75-.8-1.77-1.37-2.84-1.77-2.15-.79-4.58-.93-6.94-1.08-4.75-.24-9.58.17-14.43-.28-2.42-.25-4.84-.71-7.13-1.6-2.29-.88-4.43-2.2-6.15-3.95-.87-.86-1.62-1.85-2.3-2.82-.71-.97-1.35-2-2.29-2.68-1.85-1.45-4.57-1.46-6.69-.38l-.05-.09c2.08-1.19,4.9-1.35,6.99.11,1.06.71,1.73,1.75,2.47,2.69.73.97,1.47,1.88,2.33,2.69,1.71,1.62,3.77,2.84,5.98,3.64,2.21.81,4.56,1.22,6.93,1.41,4.74.39,9.55-.02,14.4.2,1.21.05,2.43.16,3.64.34,1.2.18,2.44.41,3.61.87,1.16.45,2.3,1.09,3.19,2.05.9.95,1.44,2.28,1.41,3.59l-.02,1.12-.77-.81c-1.21-1.27-2.99-1.96-4.79-2.22-1.81-.26-3.69-.1-5.58.02-3.79.33-7.66.04-11.34-.92-1.84-.47-3.65-1.09-5.37-1.89-1.73-.79-3.36-1.76-5.04-2.61-1.67-.87-3.41-1.59-5.23-2.04-1.82-.44-3.69-.67-5.57-.81-3.75-.3-7.55-.22-11.34-.83-1.87-.39-3.79-.75-5.56-1.41-1.79-.59-3.57-1.19-5.39-1.33-.9-.06-1.81.01-2.64.3-.8.26-1.63.91-2.72,1.04-.27.03-.58,0-.86-.1-.28-.09-.56-.31-.7-.47l-1.03-1.03c-.67-.69-1.22-1.45-1.84-2.17-1.19-1.47-2.45-2.89-3.52-4.47-.54-.78-1-1.63-1.46-2.45-.47-.81-.92-1.65-1.62-2.28l.06-.08Z"/><path class="cls-16" d="M321.35,414.78c1.63.29,2.85,1.51,4.02,2.55,1.13,1.11,2.34,2.08,3.68,2.91,2.66,1.65,5.49,3.14,8.23,4.73.69.41,1.35.8,2.05,1.15.35.18.71.37,1.07.58.4.25.58.38.91.42.64.09,1.42-.23,2.28-.26.84-.04,1.66.09,2.45.26,1.58.36,3.05.98,4.57,1.4l2.3.54c.78.14,1.56.26,2.34.32,3.15.31,6.33.22,9.51.61,3.23.31,6.2,1.71,9.22,2.39,3.05.72,6.19.96,9.32.91,1.56-.03,3.17-.16,4.81-.02,1.63.15,3.32.57,4.69,1.64l-.69.14c.12-.27.3-.56.31-.78,0-.24,0-.25-.18-.33-.18-.06-.44,0-.75.12-.3.11-.6.25-.89.41-1.2.64-2.3,1.51-3.7,2.03-.35.12-.75.2-1.16.16-.41-.04-.83-.27-1.07-.6-.47-.68-.56-1.39-.62-2.11-.02-.36-.01-.7-.02-1.05,0-.34-.04-.71-.28-.75-.26-.03-.58.19-.82.41-.25.23-.47.5-.67.78l-.08-.05c.18-.3.39-.59.63-.85.25-.24.52-.53.98-.53.24.02.42.24.48.42.07.19.09.37.1.54.03.34.06.7.1,1.04.1.65.26,1.37.63,1.82.37.46,1.01.43,1.6.18,1.2-.52,2.28-1.44,3.52-2.14.31-.18.64-.35.99-.49.33-.13.77-.3,1.27-.18.25.06.52.21.69.47.17.26.2.55.18.78-.04.48-.24.8-.4,1.17l-.21.49-.49-.35c-1.18-.85-2.69-1.25-4.2-1.37-1.53-.12-3.1.01-4.7.05-3.21.08-6.44-.29-9.56-1.06-3.15-.79-5.98-2.24-9.09-2.69-3.1-.54-6.29-.56-9.45-.9-.79-.09-1.58-.19-2.37-.31l-2.34-.5c-1.54-.42-3.05-.92-4.58-1.2-.76-.13-1.54-.21-2.28-.14-.73.04-1.45.42-2.41.37-.24-.02-.48-.08-.71-.19-.25-.13-.36-.22-.54-.31-.33-.19-.68-.37-1.03-.54-.72-.34-1.43-.76-2.11-1.14l-4.1-2.41c-1.36-.81-2.75-1.58-4.07-2.51-1.32-.9-2.55-1.99-3.63-3.15-1.08-1.13-2.18-2.34-3.7-2.79l.02-.1Z"/><path class="cls-33" d="M322.1,414.61c1.03-.03,2.05.26,2.98.7.93.44,1.8,1.01,2.62,1.6.83.59,1.64,1.19,2.49,1.7.85.52,1.74.97,2.65,1.4,1.81.85,3.71,1.54,5.62,2.23,1.91.68,3.79,1.43,5.69,2.14l5.65,2.25c1.88.76,3.75,1.53,5.69,2.1,3.86,1.24,7.98,1.15,11.99.77,4.02-.36,8.1-.91,12.22-.36,2.05.27,4.08.85,5.95,1.74,1.88.87,3.6,2.01,5.28,3.16,3.36,2.26,6.57,4.81,10.4,5.89.95.27,1.92.44,2.91.52.99.07,2.02.06,3.05.2,2.09.25,3.99,1.47,5.13,3.16l-.08.06c-1.24-1.59-3.15-2.57-5.11-2.72-.99-.09-1.99-.03-3.02-.05-1.03-.04-2.08-.16-3.08-.42-4.08-1.02-7.46-3.55-10.78-5.79-1.67-1.13-3.37-2.2-5.15-3.07-1.78-.88-3.67-1.45-5.64-1.75-3.94-.59-8-.2-12.05-.03-2.03.11-4.07.13-6.1.03-2.03-.12-4.06-.46-6.02-1.01-3.9-1.19-7.7-2.59-11.53-3.9-3.8-1.41-7.64-2.69-11.35-4.46-1.85-.88-3.56-2.1-5.12-3.37-1.57-1.22-3.24-2.49-5.29-2.63v-.1Z"/><path class="cls-17" d="M397.7,447.2c-2.12,11.26-4.21,22.53-6.63,33.74-2.43,11.2-5.12,22.35-8.32,33.37-1.62,5.5-3.35,10.97-5.24,16.39-1.9,5.41-3.98,10.76-6.1,16.09-2.08,5.33-4.18,10.66-5.93,16.1-1.74,5.44-3.12,10.99-4.29,16.59-2.35,11.2-3.93,22.56-6.26,33.8-2.26,11.26-5.75,22.23-9.86,32.93-8.27,21.38-18.51,41.98-25.49,63.82-3.55,10.89-6.62,21.93-9.66,32.97-3.03,11.05-6.07,22.1-8.94,33.18-5.71,22.17-10.69,44.59-12.93,67.38-1.17,11.38-1.5,22.82-1.37,34.27.1,11.45.51,22.91.38,34.38-.16,11.46-.8,22.98-3.1,34.24-2.23,11.25-6.35,22.2-12.65,31.79l-.08-.05c3.08-4.83,5.62-9.99,7.65-15.33,2.04-5.34,3.49-10.9,4.61-16.5,2.22-11.23,2.78-22.71,2.86-34.15.05-11.45-.43-22.9-.61-34.36-.23-11.46.19-22.96,1.35-34.38,2.27-22.86,7.28-45.33,13.02-67.51,2.86-11.1,5.98-22.13,9.09-33.16,3.11-11.03,6.25-22.06,9.88-32.94,1.81-5.44,3.75-10.84,5.84-16.18,2.1-5.33,4.32-10.62,6.58-15.89,4.52-10.53,9.2-21,13.23-31.72,4.05-10.71,7.47-21.67,9.65-32.91,2.27-11.22,3.79-22.59,6.09-33.83,1.14-5.62,2.5-11.21,4.23-16.7,1.72-5.48,3.8-10.84,5.93-16.16,2.15-5.32,4.24-10.64,6.17-16.03,1.91-5.39,3.66-10.84,5.31-16.33,3.25-10.98,6-22.1,8.48-33.28,2.47-11.19,4.78-22.41,7.03-33.65l.1.02Z"/><path class="cls-34" d="M399.96,448.64c-.37,5.71-.87,11.42-1.5,17.12-.66,5.69-1.44,11.37-2.39,17.02-.98,5.65-2.09,11.27-3.34,16.86-1.28,5.59-2.7,11.14-4.26,16.66-1.6,5.51-3.32,10.97-5.21,16.39-1.91,5.41-3.97,10.76-6.11,16.07-2.12,5.32-4.3,10.61-6.28,15.97-1.88,5.4-3.78,10.79-5.42,16.27-3.32,10.95-6.19,22.04-9.5,33.01-3.27,10.99-7.3,21.73-11.56,32.36-8.56,21.22-17.71,42.32-23.16,64.59-2.79,11.1-4.98,22.34-7.15,33.58-2.24,11.23-4.55,22.45-6.87,33.67-2.21,11.24-4.91,22.38-7.46,33.54-2.56,11.16-5.01,22.34-6.93,33.61-.96,5.64-1.79,11.3-2.42,16.98-.61,5.68-1.04,11.38-1.45,17.09-.75,11.42-1.19,22.87-2.15,34.29-.97,11.41-2.35,22.85-5.35,33.94-2.94,11.08-7.51,21.79-14.08,31.2l-.08-.06c6.46-9.48,10.82-20.22,13.68-31.26,2.91-11.06,4.21-22.48,5.1-33.87.87-11.41,1.24-22.85,1.92-34.29.35-5.72.8-11.44,1.41-17.14.64-5.7,1.48-11.38,2.44-17.03,1.94-11.3,4.4-22.5,6.98-33.66,2.57-11.16,5.28-22.29,7.49-33.52l7.01-33.62c2.25-11.23,4.51-22.47,7.38-33.57,1.42-5.55,3.02-11.06,4.8-16.51,1.78-5.45,3.74-10.83,5.79-16.18,4.09-10.7,8.58-21.24,12.76-31.9,4.2-10.65,8.16-21.4,11.36-32.38,3.25-10.97,6.06-22.08,9.33-33.07,1.61-5.5,3.49-10.92,5.35-16.35,1.96-5.39,4.11-10.7,6.28-16,2.17-5.3,4.25-10.62,6.18-16.01,1.91-5.39,3.66-10.84,5.28-16.32,1.59-5.49,3.03-11.03,4.34-16.6,1.27-5.58,2.41-11.18,3.42-16.82.96-5.64,1.84-11.3,2.57-16.97.7-5.68,1.28-11.38,1.72-17.08h.1Z"/><path class="cls-30" d="M402.22,450.09c.32,5.74.4,11.48.23,17.23-.22,5.74-.66,11.48-1.36,17.19-.73,5.7-1.68,11.38-2.82,17.01-1.18,5.63-2.55,11.22-4.08,16.76-1.58,5.53-3.31,11.02-5.2,16.45-1.92,5.42-3.97,10.79-6.15,16.11-2.16,5.33-4.43,10.6-6.65,15.9-2.19,5.31-4.4,10.6-6.51,15.95-8.55,21.32-16.88,42.73-25.97,63.83-4.44,10.59-8.7,21.26-12.31,32.16-3.65,10.88-6.61,22-8.59,33.3-2.02,11.3-3.32,22.71-4.63,34.12-1.31,11.41-2.64,22.83-4.56,34.17-1.87,11.35-4.49,22.57-7.39,33.68-2.89,11.12-6,22.18-8.69,33.33-1.34,5.58-2.59,11.18-3.64,16.81-1.03,5.64-1.89,11.31-2.72,16.99-1.61,11.36-2.91,22.78-4.67,34.14-1.78,11.35-3.94,22.69-7.58,33.62-3.59,10.92-8.65,21.41-15.53,30.64l-.08-.06c6.77-9.3,11.63-19.83,15.14-30.73,3.55-10.91,5.63-22.24,7.33-33.58,1.69-11.35,2.91-22.77,4.44-34.16.78-5.7,1.65-11.38,2.7-17.04,1.06-5.66,2.31-11.27,3.67-16.86,2.71-11.18,5.82-22.24,8.72-33.34,2.9-11.11,5.53-22.28,7.4-33.6,1.89-11.32,3.31-22.71,4.69-34.11,1.38-11.4,2.76-22.82,4.85-34.13,2.03-11.32,5.05-22.45,8.75-33.33,3.67-10.89,8-21.55,12.33-32.18,8.97-21.15,17.18-42.61,25.62-63.97,4.18-10.7,8.62-21.3,13.06-31.89,2.21-5.3,4.28-10.65,6.22-16.04,1.92-5.41,3.67-10.87,5.27-16.38,1.56-5.52,2.95-11.09,4.15-16.69,1.16-5.62,2.14-11.27,2.9-16.96.7-5.69,1.24-11.41,1.53-17.14.24-5.73.24-11.48,0-17.21h.1Z"/><path class="cls-38" d="M404.47,451.54c2.08,11.38,2.56,23.05,1.63,34.58-.92,11.55-3.14,22.96-6.21,34.12-3.07,11.16-6.99,22.08-11.42,32.77-4.41,10.7-9.46,21.13-14.65,31.45-10.4,20.65-21.5,40.95-30.75,62.14-4.63,10.58-8.71,21.42-11.92,32.52-3.22,11.09-5.52,22.44-6.77,33.92-2.5,22.97-1.6,46.19-4.44,69.21-.71,5.75-1.67,11.47-2.89,17.13-1.23,5.66-2.7,11.27-4.31,16.83-3.23,11.12-6.99,22.06-10.45,33.08-1.73,5.51-3.38,11.04-4.85,16.62-.69,2.8-1.41,5.59-2.08,8.4-.62,2.82-1.32,5.62-1.91,8.45-2.47,11.28-4.63,22.65-7.2,33.93-2.56,11.28-5.56,22.49-9.8,33.27-4.22,10.77-9.77,21.08-16.98,30.14l-.08-.06c7.1-9.14,12.46-19.5,16.59-30.25,4.16-10.77,7.08-21.98,9.56-33.25,2.49-11.28,4.58-22.65,6.97-33.97.58-2.83,1.24-5.65,1.87-8.47.67-2.82,1.39-5.62,2.09-8.43,1.48-5.6,3.15-11.14,4.88-16.66,3.47-11.04,7.24-21.97,10.47-33.05,1.61-5.54,3.08-11.12,4.31-16.76,1.22-5.63,2.19-11.32,2.89-17.05,2.82-22.92,2.18-46.15,4.8-69.16,1.3-11.5,3.66-22.88,6.94-33.97,3.28-11.1,7.42-21.92,11.95-32.56,9.14-21.26,20.13-41.64,30.42-62.33,5.17-10.34,10.06-20.8,14.53-31.45,4.47-10.64,8.43-21.51,11.55-32.62,3.12-11.11,5.38-22.48,6.36-33.98.98-11.49.73-23.12-1.23-34.52l.1-.02Z"/><path class="cls-37" d="M258.59,976.99c1.21-5.59,3.14-10.99,5.37-16.25,2.22-5.27,4.97-10.3,7.64-15.34,2.66-5.04,5.28-10.12,7.33-15.43,2.09-5.29,3.69-10.77,4.98-16.32,2.57-11.1,3.91-22.45,5.44-33.76.75-5.66,1.59-11.31,2.63-16.94,1.05-5.62,2.32-11.2,3.83-16.72,2.98-11.06,7.3-21.67,11.34-32.33,1.01-2.67,2-5.34,2.94-8.04.97-2.68,1.73-5.43,2.57-8.15,1.74-5.43,3.13-10.97,4.3-16.55,2.38-11.16,3.91-22.48,5.44-33.79,1.53-11.31,3.03-22.64,5.07-33.88,3.97-22.52,10.93-44.43,19.33-65.66,8.38-21.26,18.01-41.99,25.46-63.55,3.76-10.76,6.61-21.81,9.58-32.83,1.48-5.51,2.96-11.03,4.54-16.52,1.57-5.49,3.29-10.94,5.05-16.37,3.49-10.86,7.06-21.73,9.13-32.94,1.04-5.6,1.69-11.28,1.82-16.97.12-5.7-.37-11.41-1.56-16.99l.1-.02c2.55,11.17,2.14,22.84.13,34.07-2,11.28-5.52,22.19-8.93,33.07-1.72,5.44-3.4,10.89-4.93,16.38-1.54,5.49-2.98,11.01-4.42,16.53-2.88,11.04-5.82,22.1-9.58,32.91-7.49,21.62-17.15,42.35-25.53,63.57-4.17,10.61-8.09,21.33-11.44,32.23-3.37,10.89-6.12,21.98-8.2,33.19-4.19,22.43-6.17,45.24-10.67,67.65-1.14,5.6-2.5,11.15-4.21,16.61-.83,2.74-1.58,5.5-2.53,8.19-.92,2.7-1.9,5.39-2.89,8.07-3.98,10.7-8.24,21.31-11.15,32.33-6.17,22-6.73,45.07-11.96,67.38-1.32,5.56-2.96,11.06-5.09,16.38-2.09,5.34-4.74,10.42-7.43,15.45-2.68,5.04-5.5,10-7.79,15.23-2.29,5.21-4.29,10.58-5.58,16.14l-.1-.02Z"/><path class="cls-36" d="M257.8,973.94c-1.19-2.62-1.42-5.56-1.21-8.39.21-2.85.86-5.65,1.78-8.36,1.8-5.45,5.03-10.27,8.32-14.89,3.29-4.64,6.77-9.17,9.35-14.22,2.65-5.01,4.54-10.39,5.88-15.89,2.68-11.04,3.26-22.45,3.9-33.79.6-11.35,1.4-22.79,3.98-33.93,1.26-5.57,3.07-11.01,5.22-16.29,2.14-5.29,4.6-10.43,7.01-15.58,1.21-2.57,2.42-5.15,3.57-7.74,1.19-2.58,2.17-5.25,3.23-7.89,2.17-5.25,4-10.64,5.66-16.08,3.34-10.87,5.93-21.96,8.54-33.03,2.61-11.08,5.16-22.17,7.95-33.2,5.53-22.09,12.39-43.84,20.05-65.27,3.82-10.72,7.79-21.39,11.37-32.18,3.57-10.79,6.78-21.71,8.96-32.85,2.23-11.13,2.96-22.51,4.39-33.81.72-5.65,1.56-11.3,2.83-16.87,1.24-5.58,2.94-11.04,4.92-16.38,3.92-10.7,8.78-21.03,11.93-31.95,1.58-5.45,2.72-11.04,3.16-16.7.43-5.66.04-11.39-1.38-16.9l.1-.03c1.49,5.5,1.96,11.26,1.6,16.95-.37,5.69-1.44,11.33-3,16.81-3.1,11-7.9,21.37-11.73,32.07-1.94,5.34-3.59,10.77-4.78,16.32-1.22,5.54-2.01,11.17-2.7,16.8-1.33,11.28-2.15,22.67-4.38,33.88-2.2,11.2-5.43,22.16-9.02,32.96-3.6,10.81-7.57,21.48-11.41,32.19-7.65,21.42-14.75,43.06-20.38,65.1-2.84,11.02-5.44,22.09-8.1,33.16-2.67,11.06-5.33,22.13-8.56,33.05-1.63,5.46-3.43,10.86-5.58,16.14-1.05,2.65-2.01,5.33-3.19,7.93-1.14,2.61-2.34,5.19-3.53,7.77-2.39,5.16-4.81,10.31-6.92,15.58-2.11,5.27-3.88,10.67-5.1,16.21-5.1,22.19-2.52,45.41-7.95,67.72-1.38,5.54-3.32,10.96-6.02,16-2.63,5.09-6.15,9.62-9.46,14.23-3.29,4.61-6.57,9.33-8.42,14.71-.95,2.67-1.63,5.44-1.88,8.27-.25,2.81-.06,5.73,1.08,8.33l-.09.04Z"/><path class="cls-13" d="M257.02,970.88c-2.27-1.77-3.88-4.35-4.53-7.16-.73-2.8-.61-5.75-.08-8.58.56-2.83,1.64-5.55,3.13-8.03,1.52-2.45,3.33-4.7,5.26-6.83,3.84-4.26,8.1-8.14,11.47-12.74,1.65-2.32,3.11-4.77,4.35-7.33,1.19-2.58,2.17-5.26,2.96-7.99.76-2.74,1.32-5.54,1.75-8.36.41-2.82.66-5.66.84-8.51.31-5.7.26-11.42.14-17.15-.12-5.72-.27-11.45-.15-17.19.11-5.74.49-11.49,1.45-17.16.47-2.84,1.15-5.64,1.96-8.41.82-2.76,1.86-5.45,3.01-8.08,2.3-5.27,5.09-10.3,7.92-15.27,2.84-4.98,5.7-9.93,8.23-15.06,2.55-5.12,4.86-10.36,7.02-15.66,4.34-10.6,7.99-21.46,11.7-32.29,3.69-10.84,7.31-21.71,10.87-32.59,7.12-21.77,13.98-43.63,20.96-65.45,3.48-10.91,6.94-21.83,9.71-32.92,2.76-11.09,4.83-22.38,5.43-33.78.64-11.41-.64-22.83-.77-34.31-.03-5.74.14-11.51,1.08-17.2.89-5.7,2.57-11.25,4.81-16.54,4.39-10.63,10.51-20.4,14.76-31.02,2.12-5.3,3.76-10.81,4.54-16.47.75-5.65.49-11.48-1.19-16.96l.1-.03c1.75,5.47,2.09,11.34,1.41,17.03-.71,5.7-2.28,11.28-4.39,16.61-4.2,10.71-10.26,20.53-14.55,31.11-2.19,5.27-3.81,10.77-4.65,16.4-.89,5.63-1.02,11.35-.95,17.06.22,11.41,1.42,22.87.79,34.37-.62,11.49-2.71,22.84-5.49,33.96-2.78,11.13-6.26,22.07-9.75,32.97-6.97,21.82-14.07,43.6-21.31,65.34-3.61,10.87-7.28,21.72-11.02,32.55-3.76,10.82-7.48,21.66-11.72,32.31-2.13,5.32-4.42,10.58-6.95,15.73-2.51,5.16-5.35,10.15-8.16,15.13-2.8,4.99-5.55,10.01-7.81,15.26-1.13,2.62-2.14,5.29-2.94,8.02-.78,2.74-1.44,5.51-1.89,8.33-1.87,11.28-1.34,22.78-1.19,34.21.09,5.73.12,11.47-.23,17.21-.19,2.87-.46,5.73-.89,8.57-.45,2.84-1.03,5.66-1.81,8.44-.81,2.76-1.82,5.47-3.04,8.08-1.27,2.59-2.76,5.07-4.45,7.41-3.44,4.64-7.73,8.51-11.57,12.72-1.93,2.1-3.72,4.33-5.26,6.72-1.5,2.41-2.59,5.08-3.18,7.86-.56,2.78-.71,5.69-.03,8.46.6,2.78,2.16,5.34,4.38,7.13l-.06.08Z"/></g><path class="cls-26" d="M289.61,394.02l2.38,2.16c2.24,2.35,5.2,3.56,8.03,5.02,1.36.74,3.11-.07,4.49-.51.51-.16.92-.43,1.21-.88.58-.89,1.24-1.74,1.64-2.73.41-.98.67-2.03.74-3.1-.02,2.19-.96,4.21-2.17,5.98-.28.48-.79.85-1.3,1.02-.92.33-2.13.89-3.12.96-1.68.1-3.11-1.05-4.61-1.63-1.97-.8-3.94-2-5.48-3.46,0,0-2.46-2.06-2.46-2.06l.66-.75h0Z"/><path class="cls-26" d="M290.48,379.81c-.27-.68-.55-1.33-.99-1.8-.86-.98-2.61-.92-3.48.04-.48.49-.6,1.12-.33,1.8.48,1.44,1.17,2.69,2.14,3.87.69,1.2,1,3.21,2.75,3.15-1.73.19-2.24-1.89-2.96-3.02-1.16-1.37-2.56-3.17-2.61-5.06.39-2.26,3.57-2.97,5.11-1.4.62.6.98,1.35,1.3,2.04l-.92.39h0Z"/><path class="cls-26" d="M299.95,371.92c4.15,1.45,7.65,5.27,7.6,9.82.02,1.57-.11,3.22.89,4.49.68.88,3.15,1.8,1.51,3.04-.9.97-1.43,2.26-1.47,3.6-.02-1.07.29-2.14.87-3.06.23-.45.74-.84.95-1.24-.03-1.05-1.54-1.34-2.11-2.13-1.12-1.28-1.09-3.13-1.17-4.69-.05-2.1-.96-4.05-2.32-5.6-1.35-1.68-3.18-2.56-5.13-3.31,0,0,.38-.93.38-.93h0Z"/><path class="cls-26" d="M299.53,372.83c-3.75-2.07-7.84-3.19-12.13-2.58-6.05.58-13.59,2.58-15.1,9.36-.51,2.1.02,4.27,1.35,5.97,2.35,3.3,4.91,7.63,4.43,11.81.37-2.14-.49-4.26-1.3-6.2-.86-1.97-1.96-3.81-3.29-5.5-1.38-1.69-1.97-4-1.46-6.15,1.47-6.94,9.13-9.23,15.3-10.06,4.33-.74,8.83.39,12.66,2.44,0,0-.45.89-.45.89h0Z"/><path class="cls-26" d="M288.32,369.89c.97-4.06-5.89-6.58-8.94-5.23-.5.27-.86.72-1.24,1.23-1.56,2.04-4.27,2.68-5.37,5.11-1.19,1.98-1.41,5.53,1.36,6.23-2.83-.61-2.73-4.29-1.58-6.34.97-2.42,3.76-3.32,5.19-5.29,1.38-2.58,4.75-2.09,7.09-1.35,2.52.67,5.1,2.98,4.47,5.9,0,0-.97-.25-.97-.25h0Z"/><path class="cls-26" d="M295.64,404.65c5.24,3.76,11.77,1.85,17.51.51.88-.13,1.82-.2,2.66.1-1.78-.16-3.33.73-5.03,1.24-4.86,1.71-11.35,2.33-15.14-1.85h0Z"/><path class="cls-26" d="M277.26,400.36c.53,2.41-2.18,4-4.31,3.88-1.1,0-2.13-.23-3.11-.45-.99-.22-1.96-.43-3.01-.45.98-.39,2.09-.4,3.12-.32,2.71.32,6.59.79,7.31-2.66h0Z"/><path class="cls-26" d="M158.73,440.29c3.38.26,5.83-1.89,8.67-3.36,3.02-1.06,6.21-1.46,9.18-2.52,1.08-.42,2.4-.26,3.39.23,1.47.74,2.65,1.63,4.19,2.04,1.49.38,3.11.78,4.61,1.11,6.17,1.39,12.5,2.1,18.83,2.18,6.23-.1,12.71.16,18.74-1.5,4.05-1.23,7.06-4.62,11.23-5.79,2.12-.57,4.22-.68,6.19-1.32,3.97-1.19,7.61-3.56,10.33-6.8-2.06,3.44-6.13,6.17-10.09,7.54-2.05.72-4.21.9-6.16,1.5-4.03,1.22-7.05,4.65-11.19,5.85-6.22,1.63-12.72,1.26-19.07,1.05-6.35-.36-12.65-1.11-18.92-2.15-1.51-.26-3.17-.59-4.68-.91-1.58-.31-3.02-1.34-4.38-1.99-.9-.42-1.83-.57-2.76-.25-3.02,1.03-6.19,1.41-9.17,2.42-1.88.79-3.68,2.2-5.75,2.65-1.06.23-2.15.23-3.2.11,0,0,0-.1,0-.1h0Z"/><path class="cls-26" d="M175.52,427.47c-1.73.67-3.55,1.09-5.31,1.57-1.38.34-2.87.99-4.31.47-1.2-.36-1.58-2.05-.71-2.89.34-.39.72-.67,1.04-.97.51-.35,1.28-1.68.37-1.89-1.04-.1-2.24.39-3.3.63-1.06.62-1.61,1.54-2.73,2.16-1.63.51-3.46,1.03-4.79,2.14-.72,1.03-.97,2.41-1.37,3.66-.31.88-.43,1.56-.01,2.25.4.7,1.07,1.5,1.43,2.4.33.92.56,1.73,1.22,2.32.63.6,1.5.96,2.34,1.33,0,0-.03.09-.03.09-.89-.22-1.81-.47-2.61-1.06-.83-.59-1.22-1.61-1.6-2.37-.39-.79-.99-1.37-1.58-2.22-.63-.83-.53-2.18-.17-3.07.45-1.35.68-2.82,1.62-4.03,1.53-1.27,3.33-1.84,5.25-2.24.92-.43,1.91-1.41,2.94-1.74.48-.12,1.55-.32,2.04-.46.99-.26,2.43-.38,2.12,1.14-.12,1.24-2.21,2.19-1.79,3.29.7,1.54,3.1.44,4.47.25,1.83-.36,3.64-.6,5.47-.9,0,0,.03.1.03.1h0Z"/><path class="cls-26" d="M236.48,421.19c-1.15.2-2.51.84-3.57,1.25-1.25.37-2.41,1-3.37,1.91-1.91,1.9-4.74,2.1-6.69,3.88,0,0-.09-.05-.09-.05,1.05-2.62,4.22-3.1,6.45-4.33,1.89-.7,3.15-2.59,5.21-2.86.67-.18,1.42-.12,2.05.09,0,0,0,.1,0,.1h0Z"/><path class="cls-26" d="M223.02,427.92c-5.98.29-11.91.07-17.87-.02-3.97.08-7.93.59-11.9.79-2.98.06-5.9,1.07-8.94.82-2.96-.17-5.84-1.71-8.78-1.21,0,0-.04-.09-.04-.09.46-.26.98-.31,1.48-.33,3.47-.06,6.82,1.23,10.27.51,1.75-.28,4.22-.71,5.96-.66,3.97-.16,7.96,0,11.93-.13,5.88-.33,12.22-.83,17.88.33h0Z"/><path class="cls-26" d="M316.09,417.98c1.57,2.94,2.17,6.5,1.46,9.81-.76,1.9-1.76,3.56-2.86,5.28.52-1.88,1.32-3.71,1.94-5.52.51-3.15.09-6.37-.55-9.56h0Z"/><path class="cls-26" d="M314.77,432.49c-1.38,7.78.5,15.42,1.99,23.04.75,3.83,1.1,7.74,2.69,11.23.75,1.78,1.64,3.52,2.38,5.34.72,1.82,1.26,3.76,1.24,5.72-.21-1.94-.84-3.79-1.69-5.52-1.69-3.49-3.84-6.94-4.47-10.84,0,0-1.12-5.74-1.12-5.74-1.39-7.6-3.2-15.58-1.01-23.23h0Z"/><path class="cls-26" d="M265.71,409.32c-.12,6.3.07,12.93,4.61,17.78-5.64-3.79-6.2-11.76-4.61-17.78h0Z"/><path class="cls-26" d="M267.21,424.49c-.48,6.46.28,12.91,2.25,19.06,2.14,6.13,3.41,12.92,1.44,19.29-1.63,4.08-2.32,8.23-3.07,12.52.2-2.15.42-4.29.69-6.45.27-2.17,1.09-4.24,1.64-6.28,1.07-4.11,1.01-8.46.1-12.61-.85-4.2-2.58-8.27-3.13-12.56-.64-4.3-.65-8.7.07-12.96h0Z"/><path class="cls-26" d="M268.77,475.41c-.27.92-1.58,1.34-1.37,2.08.25.5,1.45.72,2.34,1.08,1.88.69,3.7,1.56,5.42,2.58,3.43,2.06,6.55,4.66,8.98,7.86,2.4,3.26,3.58,7.14,4.78,10.89.91,2.82,1.81,5.67,3.31,8.24.51.79,1.33,1.65,2.37,1.47-1.04.21-1.88-.65-2.42-1.44-3.59-5.9-4.19-13.34-8.44-18.86-3.99-4.97-9.62-8.55-15.7-10.37-.78-.17-2-1.04-1.55-2.12.23-.72,1.15-1.21,1.33-1.75,0,0,.94.33.94.33h0Z"/><path class="cls-26" d="M324.01,478.64c.02,2.25-1.91,3.87-3.86,4.51-1.97.62-3.94.43-5.82.53-3.79.08-7.29,2.21-9.3,5.41-3.74,5.61-3.42,12.99-6.82,18.77-.53.79-1.28,1.5-2.23,1.72.94-.24,1.67-.96,2.18-1.76,4.08-7.4,2.55-18.13,10.53-23.17,3.28-2.34,7.61-1.34,11.17-2.34,1.66-.57,3.21-2,3.14-3.66,0,0,1-.03,1-.03h0Z"/><path class="cls-26" d="M324.04,479.3c.12,4.8,2.34,9.27,5.96,12.29.73.6,1.54,1.16,2.23,1.86,1.42,1.41,2.04,3.35,2.59,5.19,2.25,7.44,1.16,15.8-2.48,22.62,0,0-.09-.04-.09-.04,2.45-7.23,3.52-14.91,2.04-22.44-.37-1.85-.9-3.78-2.28-5.09-1.44-1.26-3.3-2.06-4.62-3.51-2.63-2.79-4.27-7.32-3.34-10.87h0Z"/><path class="cls-26" d="M312.83,516.18c-1.97-.18-3.88-.21-5.78-.81-3.3-.37-6.81-1.68-8.32-4.88,0,0,.08-.06.08-.06,2.63,1.81,5.13,3.95,8.29,4.62,1.95.02,4.06-.25,5.76,1.04,0,0-.04.09-.04.09h0Z"/><path class="cls-26" d="M318.51,507.03c-1.14,1.99-2.36,3.94-3.07,6.06-.81,2.17-.55,4.54-1.54,6.71-1.1,2.13-2.96,3.51-4.12,5.57-1.19,1.94-2.08,4.06-2.87,6.2-1.66,4.29-2.37,8.69-2.21,13.3.05,4.53-.45,9.59-3.55,13.16,0,0-.08-.06-.08-.06,2.54-3.95,2.69-8.55,2.57-13.1-.17-4.6.74-9.35,2.77-13.5.96-2.09,1.94-4.17,3.1-6.16,1.02-1.99,2.75-3.73,3.64-5.74.8-1.98.62-4.43,1.58-6.64.89-2.19,2.27-4.07,3.71-5.85l.08.06h0Z"/><path class="cls-26" d="M331.84,521.55c-.08,4.11-1.55,8.21-3.67,11.68-1.05,1.71-1.6,3.68-2.36,5.6-2.47,5.63-5.02,11.2-7.76,16.69-1.86,3.62-3.8,7.32-6.55,10.39l-.08-.06c2.23-3.44,3.9-7.13,5.68-10.81,2.58-5.54,5.98-10.73,8.41-16.33.81-2.95,1.71-5.95,3.32-8.58,1.36-2.72,2.3-5.6,2.91-8.6,0,0,.1.01.1.01h0Z"/><path class="cls-26" d="M300.45,558.92c-1.3,1.82-1.28,4.08-1.53,6.27-.22,2.22-1.08,4.88-3.35,5.81-2.03.71-3.23,2.75-3.57,4.89-.43,3.24.39,6.71-.54,9.94-.46,2.18-.98,4.44-2.17,6.38-1.23,1.89-2.28,3.64-3.02,5.76-.69,1.97-1.79,4.08-1.12,6.15.34.97,1.18,1.86,1.34,3.01l-.1.02c-.31-1.06-1.2-1.77-1.71-2.84-.98-2.2.05-4.56.68-6.67.81-3.28,3.35-5.71,4.39-8.86.63-2.05,1.32-4.2,1.63-6.33.38-3.23-.38-6.81,1.28-9.85.53-1.01,1.51-1.87,2.51-2.35,4.2-2.01,2.02-8.75,5.26-11.34h0Z"/><path class="cls-26" d="M286.67,607.59c6.98,2.09,6.17-2.06,10.29-5.7.87-.76,1.88-1.31,2.71-1.99,2.45-2.22,3.38-5.75,3.96-8.91.76-4.41.2-8.99,1.46-13.36,1.21-4.39,3.44-8.45,6.32-11.88-2,3.75-4.32,7.87-5.29,12.15-1.26,4.21-.78,8.79-1.96,13.19-.89,3.24-1.85,6.65-4.12,9.21-.84.81-1.76,1.43-2.52,2.2-1.74,1.51-2.56,3.55-4.26,5.15-1.9,1.7-4.6.94-6.62.02,0,0,.03-.09.03-.09h0Z"/><path class="cls-26" d="M265.59,478.62c1.23,7.12.54,14.32-.45,21.43-.61,4.46-1.81,8.74-2.69,13.12-.54,2.62-.72,5.28-1.24,7.92,0,0-.1,0-.1,0,.02-3.57.06-7.21.86-10.74.76-3.52,1.79-6.93,2.63-10.39,1.82-6.94.17-14.45.99-21.33h0Z"/><path class="cls-26" d="M271.79,575.11c1.83-5.59,6.22-18.04,7.93-23.45,1.71-5.25,2.26-10.85,4.43-15.95,3.05-7.62,8.01-14.58,8.78-22.93,0,0,.1,0,.1,0,.17,9.91-6.41,18.09-9.53,27.09-3.79,11.69-5.98,24.45-11.72,35.23h0Z"/><path class="cls-26" d="M261.35,520.95c-.37,7.17-1.14,14.27-1.71,21.42-.26,4.13.03,10.12.16,14.32.15,2.4.03,4.99-.92,7.24-.89,2.29-2.15,4.33-3.04,6.5-.91,2.17-1.48,4.48-1.74,6.86,0,0-.1,0-.1,0-.07-2.4.32-4.83,1.11-7.13,1.18-3.4,3.18-6.38,3.63-9.93.21-5.92.27-11.93.58-17.86.07-7.1.31-14.66,2.04-21.41h0Z"/><path class="cls-26" d="M253.76,577.4c-.2,5.81-.78,11.54-1.38,17.3-.31,5.78-.02,11.58-.3,17.37-.13,2.89-.32,5.79-.57,8.67-.07.95-.28,1.94.24,2.76l-.08.06c-.35-.36-.52-.88-.58-1.37-.14-1.46-.09-2.9-.12-4.37-.03-5.8.22-11.58.72-17.36.76-7.62-.06-15.79,2.08-23.07h0Z"/><path class="cls-26" d="M272.21,574.89c.54,1.98.99,4.01,1.09,6.11.18,4.23-1.56,8.13-2.96,12.01-3.21,9.75-7.26,19.17-9.76,29.14,0,0-.1-.02-.1-.02.78-10.41,6.08-19.61,9.55-29.23,1.11-3.88,2.32-7.87,2.5-11.9.05-2.01-.23-4.05-.41-6.1,0,0,.1-.02.1-.02h0Z"/><path class="cls-26" d="M250.02,620.41c1.59,5.31-3.57,10.19-2.93,15.38.19,1.95,2.31,3,3.59,4.35,1.4,1.48,2.13,3.45,3.31,5.05.6.77,1.86,2.34,2.87,1.77.42-.31.66-.98.93-1.57,2.08-4.35,1.44-8.96,1.67-13.68.46-5.55,3.82-10.2,3.32-15.63,1.48,5.04-2.04,10.6-2.26,15.72-.2,4.56.25,9.66-2.12,13.88-2.26,5.18-5.4-1.52-6.78-3.74-1.33-2.43-4.81-3.08-5.37-6.01-.67-5.94,4.35-10.13,3.74-15.53h0Z"/><path class="cls-26" d="M316.13,431.81c3.54-.56,7.07.86,10.11,2.55,3.73,2.38,7.79,3.71,12.06,4.6,2.54.76,4.98,1.57,7.61,1.96,3.44.8,6.62,2.36,9.85,3.65,3.22,1.33,6.59,2.17,10.01,2.69,3.43.52,6.91.69,10.39.88,6.95.3,13.98.54,20.75-1.32,0,0,.03.1.03.1-6.61,2.47-13.86,2.54-20.82,2.26-3.5-.12-7.02-.37-10.49-.98-3.47-.58-6.91-1.59-10.08-3.11-3.18-1.45-6.29-3.13-9.7-3.83-3.47-.46-6.81-1.53-10.27-2.09-7.19-1.08-12.37-7.51-19.44-7.36h0Z"/><path class="cls-26" d="M397.45,446.89c3.87-1.24,7.17,1.88,10.32,3.58,1.1.57,2.29.92,3.4,1.52,5.62,3.46,7.78,2.97,12.08-1.98,0,0,.08.06.08.06-3.2,6.13-7.22,6.78-12.44,2.39-1.99-1.4-4.46-2.07-6.65-3.21-2.18-1.11-4.25-2.37-6.76-2.26l-.02-.1h0Z"/><path class="cls-26" d="M416.45,449.48c.75-.66,1.55-.59,2.4-.39.82-.07,1.54-.65,2.38-.64.56,0,1.2.1,1.67.54l-.02.1c-1.11.39-2.02.61-3.17.34-.28-.06-.55-.09-.82-.02-.77.38-1.54.64-2.42.17,0,0-.01-.1-.01-.1h0Z"/><path class="cls-26" d="M417.12,451.23c-2.06-.66-3.71-1.93-5.3-3.3-1.74-1.15-3.74-1.88-5.44-3.09-1.14-.79-2.24-1.65-3.23-2.67l.05-.08c3.39,1.14,5.95,3.56,8.8,5.57,1.91.89,3.74,1.88,5.18,3.49,0,0-.05.08-.05.08h0Z"/><path class="cls-26" d="M375.24,437.71c-5.74-.89-11.11-3.21-16.9-3.68-5.46-.49-12.68-.86-16.08-5.65,4.63,3.69,10.59,3.87,16.16,5.11,5.57,1.29,11.88,1.42,16.82,4.22h0Z"/><g class="cls-45"><path class="cls-21" d="M390.39,451.05c1.97,1.62,3.35,3.92,3.92,6.41.28,1.25.37,2.54.2,3.82-.1.63-.28,1.29-.69,1.82-.4.55-1.08.84-1.7.97-2.5.46-5,.91-7.56,1.02-2.57.15-5.1-.43-7.57-.19-2.49.22-4.86,1.13-7.22,2.02-1.18.45-2.37.91-3.59,1.29-.62.19-1.22.37-1.87.51-.33.06-.67.11-1.04.07-.36-.03-.77-.18-1.06-.49-.29-.31-.4-.68-.49-1-.08-.32-.15-.6-.25-.9-.18-.59-.42-1.15-.68-1.73-.26-.57-.54-1.17-.71-1.83-.18-.66-.19-1.37-.07-2.04.1-.65.33-1.32.61-1.9l.82-1.72c.27-.57.53-1.14.75-1.71.21-.56.41-1.18.39-1.67,0-.19-.13-.42-.28-.66-.15-.23-.35-.45-.56-.67-.43-.43-.89-.84-1.38-1.2-.98-.74-2.06-1.32-3.21-1.75-2.27-.84-4.87-1.09-7.15-.49-.55.17-1.06.43-1.45.8-.39.36-.65.86-.9,1.43-.25.56-.47,1.19-.88,1.79-.4.6-1.11,1.12-1.89,1.21-1.56.18-2.88-.77-3.71-1.76-.44-.5-.81-1.01-1.21-1.48-.39-.47-.83-.87-1.29-1.26-1.91-1.51-4.35-2.26-6.81-2.65-1.23-.22-2.48-.32-3.75-.47-.64-.08-1.28-.19-1.91-.39-.63-.17-1.26-.56-1.74-.98-1.95-1.74-3.3-3.93-4.62-6.09-1.29-2.19-2.48-4.43-3.46-6.78l.09-.04c1.05,2.3,2.31,4.51,3.65,6.64.68,1.07,1.39,2.11,2.16,3.11.77.99,1.57,1.97,2.52,2.75.92.83,2.14,1.02,3.38,1.14,1.24.1,2.53.16,3.8.34,2.52.36,5.12,1.08,7.25,2.69.52.41,1.02.86,1.45,1.36.43.49.81,1,1.22,1.44.41.45.83.84,1.32,1.1.49.26,1.04.4,1.53.33.49-.06.9-.35,1.2-.79.31-.45.53-1.02.79-1.62.26-.59.58-1.24,1.12-1.75.53-.5,1.19-.82,1.84-1.03,2.63-.7,5.32-.38,7.77.56,1.22.47,2.38,1.12,3.41,1.92.52.4,1.01.84,1.47,1.31.23.24.45.5.65.8.1.15.19.31.26.47.08.14.15.43.15.61,0,.79-.25,1.39-.47,2.01-.24.61-.51,1.19-.79,1.76l-.84,1.7c-.28.56-.47,1.1-.57,1.7-.1.58-.1,1.16.04,1.73.14.57.4,1.13.65,1.71.26.58.5,1.19.69,1.81.21.62.26,1.32.56,1.64.29.34.9.35,1.48.23.59-.13,1.21-.3,1.8-.48,1.2-.36,2.38-.81,3.57-1.24,2.37-.87,4.8-1.78,7.39-1.98,2.59-.23,5.1.4,7.6.28,2.51-.07,5.02-.49,7.51-.91.6-.12,1.18-.36,1.54-.84.38-.47.56-1.08.66-1.68.17-1.23.11-2.51-.15-3.73-.52-2.45-1.85-4.75-3.79-6.37l.06-.08Z"/><path class="cls-6" d="M318.15,432.4c1.97,3.19,3.94,6.41,6.35,9.27.61.71,1.26,1.38,1.98,1.94.71.59,1.59.81,2.52.92,1.85.18,3.77.34,5.59.94.91.29,1.79.7,2.6,1.25.81.54,1.45,1.32,2.08,1.95.62.63,1.45,1.08,2.25.96.81-.11,1.18-.96,1.64-1.81.24-.42.59-.87,1.04-1.15.45-.28.94-.44,1.42-.54.98-.19,1.95-.18,2.92-.07,1.93.23,3.8.96,5.35,2.14.39.3.76.6,1.11.99.17.21.33.4.46.69.14.35.11.64.09.9-.14,1.04-.53,1.91-.84,2.79-.08.22-.16.43-.23.64-.07.21-.1.38-.13.61-.05.42-.04.83.07,1.22.21.78.77,1.58,1.13,2.52.19.45.3,1.03.45,1.18.11.16.42.23.84.18.86-.13,1.78-.36,2.67-.6,1.79-.48,3.61-1.09,5.54-1.32.48-.06.97-.08,1.46-.09.48.01.96.07,1.44.1l2.8.25c1.83.1,3.68-.15,5.53-.4.46-.07.94-.11,1.32-.24.39-.12.68-.38.89-.75.4-.74.49-1.71.5-2.6,0-1.82-.67-3.68-1.94-5.05l.07-.07c1.38,1.3,2.2,3.18,2.33,5.1.03.48.02.97-.05,1.45-.05.48-.16.98-.4,1.44-.23.47-.67.89-1.18,1.07-.5.19-.97.24-1.43.33-1.85.35-3.74.63-5.67.58l-2.82-.18c-.46-.02-.92-.06-1.37-.07-.45.01-.9.05-1.35.11-1.8.23-3.57.82-5.39,1.33-.92.26-1.83.47-2.83.61-.26.03-.55.04-.87-.03-.31-.06-.66-.25-.88-.54-.22-.28-.3-.58-.36-.81-.06-.21-.13-.42-.21-.63-.29-.83-.84-1.59-1.12-2.64-.14-.52-.14-1.07-.07-1.57.03-.24.09-.53.18-.77.08-.24.17-.46.25-.68.34-.87.72-1.75.84-2.57.03-.19.02-.4-.02-.49-.05-.14-.18-.33-.31-.48-.27-.32-.62-.62-.97-.9-1.42-1.11-3.16-1.82-4.95-2.06-.89-.11-1.83-.13-2.69.03-.88.16-1.62.55-2.04,1.34-.23.38-.43.82-.74,1.24-.3.42-.8.77-1.36.85-1.11.15-2.08-.47-2.75-1.15-.68-.7-1.24-1.41-1.99-1.92-.74-.52-1.57-.92-2.44-1.22-1.75-.61-3.6-.8-5.48-1.02-.47-.07-.95-.16-1.41-.31-.46-.17-.9-.43-1.27-.72-.75-.6-1.39-1.3-2-2.03-2.38-2.93-4.29-6.19-6.21-9.41l.09-.05Z"/><path class="cls-14" d="M319.81,432.39c1.63,1.88,3.02,3.93,4.59,5.85.78.96,1.57,1.91,2.44,2.78.88.85,1.79,1.68,2.99,1.82,1.19.18,2.47.29,3.68.65.61.17,1.21.41,1.78.72.58.31,1.07.76,1.53,1.09.45.33,1.02.52,1.47.41.46-.09.72-.62,1.29-1.1.62-.46,1.33-.54,1.98-.57.65-.02,1.3.03,1.94.16,1.27.26,2.5.73,3.55,1.6l.39.36c.14.12.28.41.32.59.09.4.07.74.05,1.07-.02.32-.06.64-.07.9-.01.2.06.49.15.72.17.47.57.95.9,1.53.16.26.33.68.41.78.05.08.16.13.42.15,1.15.03,2.39-.14,3.64-.22.63-.03,1.27-.05,1.91,0,.65.03,1.26.16,1.88.25.6.08,1.2.19,1.79.2.6.02,1.2,0,1.81-.05.6-.05,1.24-.12,1.81-.21.54-.08.88-.5,1.12-1.05.49-1.07.62-2.37.16-3.5l.09-.05c.62,1.11.6,2.51.18,3.72-.11.3-.25.61-.48.89-.23.28-.59.47-.92.55-.65.15-1.23.25-1.87.34-1.24.21-2.56.18-3.8,0-.6-.06-1.22-.17-1.8-.17-.59-.02-1.19.02-1.8.07-1.22.09-2.43.28-3.77.26-.34,0-.91-.14-1.21-.59-.25-.42-.28-.6-.45-.87-.26-.5-.68-.99-.94-1.69-.12-.36-.2-.68-.18-1.1.02-.35.07-.65.1-.94.03-.29.04-.57,0-.78-.03-.12-.02-.13-.11-.21l-.29-.27c-.84-.74-1.99-1.24-3.12-1.49-.58-.13-1.17-.18-1.76-.18-.58,0-1.16.09-1.55.39-.2.15-.38.37-.62.62-.23.24-.56.49-.94.58-.78.17-1.48-.16-2.01-.54-1.8-1.79-4.24-2.14-6.72-2.51-.61-.11-1.29-.36-1.78-.77-.52-.38-.97-.82-1.41-1.27-.86-.91-1.63-1.88-2.39-2.87-1.52-1.96-2.86-4.06-4.42-5.97l.07-.07Z"/><path class="cls-20" d="M321.47,432.39c1.15.85,2.06,1.95,3.01,2.99.94,1.05,1.87,2.12,2.84,3.14.97.98,1.99,2.07,3.18,2.58,1.31.4,2.71.59,4.1.75,1.4.16,2.82.3,4.24.6.71.15,1.41.36,2.1.63.67.29,1.36.64,1.94,1.08,1.17.85,2.16,1.75,3.48,1.82,1.31.14,2.69-.28,4.05-.65l.04.09c-1.24.67-2.58,1.29-4.12,1.33-.76,0-1.56-.21-2.22-.57-.68-.34-1.25-.79-1.82-1.18-2.17-1.61-5-2.04-7.79-2.46-1.4-.22-2.81-.47-4.19-.95-.72-.3-1.27-.79-1.8-1.27-.52-.49-1.01-1.01-1.48-1.54-.95-1.06-1.84-2.15-2.74-3.24-.92-1.07-1.79-2.2-2.89-3.07l.06-.08Z"/></g><g class="cls-42"><path class="cls-31" d="M252.04,431.7c.95,3.53-.91,7.56-4.19,9.23-1.65.87-3.55.94-5.33.95h-5.4c-3.58.04-7.24-.28-10.64.69-1.68.48-3.24,1.36-4.34,2.7-1.12,1.33-1.83,2.99-2.86,4.52-.51.77-1.12,1.51-1.87,2.1-.75.6-1.6,1.04-2.49,1.35-1.79.6-3.66.71-5.48.71-3.62-.07-7.24-.22-10.83-1.01-1.78-.4-3.54-.99-5.18-1.81-1.65-.82-3.18-1.92-4.42-3.28-1.25-1.35-2.26-2.93-2.87-4.66-.61-1.73-.74-3.62-.35-5.39l.1.02c-.27,1.77,0,3.59.68,5.21.66,1.63,1.69,3.11,2.94,4.34,2.48,2.53,5.86,3.91,9.31,4.6,3.46.72,7.06.87,10.63,1,1.77.03,3.54-.05,5.18-.57,1.65-.51,3.02-1.58,3.99-3.05,1-1.43,1.75-3.11,2.97-4.54,1.21-1.45,2.94-2.38,4.71-2.86,1.78-.49,3.62-.61,5.42-.64,1.81-.01,3.6.05,5.4.07l5.39.1c1.78.02,3.61-.02,5.2-.82,3.18-1.54,5.1-5.44,4.23-8.94l.1-.03Z"/><path class="cls-41" d="M186.48,439.52c0,2.87,1.66,5.45,3.74,7.29,2.1,1.89,4.8,2.95,7.53,3.55,2.75.61,5.59.77,8.41.88,1.4.03,2.81,0,4.15-.32,1.34-.31,2.55-.93,3.48-1.93.95-.98,1.71-2.2,2.76-3.26,1.05-1.07,2.41-1.83,3.82-2.27,2.84-.89,5.74-.84,8.56-1.05l4.26-.21c1.42-.07,2.81-.14,4.1-.56,1.29-.42,2.46-1.23,3.36-2.27.9-1.03,1.6-2.33,1.62-3.75h.1c.11,1.45-.5,2.87-1.36,4.04-.89,1.16-2.09,2.1-3.48,2.64-1.39.56-2.88.64-4.28.77l-4.25.35c-2.83.25-5.7.23-8.32,1-1.31.38-2.52,1.02-3.48,1.96-.98.94-1.77,2.14-2.82,3.18-1.03,1.08-2.46,1.78-3.89,2.08-1.44.31-2.9.32-4.33.26-2.85-.16-5.71-.37-8.5-1.04-2.77-.67-5.52-1.83-7.62-3.82-2.08-1.93-3.71-4.61-3.64-7.52h.1Z"/><path class="cls-1" d="M187.06,441.22c.73,2,2.24,3.62,3.95,4.84,1.72,1.23,3.73,1.99,5.77,2.47,2.05.49,4.17.7,6.28.82,2.09.1,4.26.04,6.02-.99.88-.5,1.69-1.19,2.6-1.81.91-.63,1.95-1.1,2.99-1.44,2.1-.68,4.23-.91,6.31-1.32l3.15-.54c1.05-.18,2.1-.34,3.1-.6,1-.26,1.96-.69,2.86-1.23.91-.53,1.76-1.16,2.5-1.92l.08.06c-1.32,1.7-3.15,3.01-5.23,3.74-1.04.37-2.11.55-3.14.78l-3.13.68c-2.09.45-4.22.7-6.2,1.29-.99.29-1.93.68-2.79,1.24-.87.55-1.72,1.23-2.7,1.76-2.01,1.11-4.33,1.09-6.44.94-2.14-.17-4.28-.44-6.36-.98-2.07-.56-4.11-1.39-5.83-2.71-1.7-1.3-3.19-2.99-3.86-5.05l.09-.03Z"/><path class="cls-27" d="M187.62,442.91c2.54,1.77,5.38,3.08,8.37,3.81,2.97.79,6.08.99,9.12.71,1.52-.15,3.02-.47,4.48-.87,1.46-.45,2.87-.96,4.27-1.6,1.42-.59,2.85-1.27,4.4-1.66,1.53-.4,3.23-.5,4.7.11l-.03.1c-1.52-.32-3.05-.05-4.46.46-1.43.51-2.79,1.21-4.18,1.91-1.4.69-2.91,1.24-4.43,1.65-1.54.36-3.1.62-4.67.72-3.14.19-6.31-.12-9.31-1.02-3.01-.88-5.83-2.33-8.3-4.22l.06-.08Z"/></g></g></svg>